<svg id="Layer_2" xmlns="http://www.w3.org/2000/svg" viewBox="0 0 58.01 60.1"><defs><style>.cls-1{fill:none;stroke:#0050b5;stroke-linecap:round;stroke-linejoin:round}</style></defs><g id="Layer_1-2"><path class="cls-1" d="M23.17 8.44l-1.86-3.43L18.81.5l-9.5 5.15-4.35 2.37 2.23 4.1 9.15 16.83M16.35 30.93L4.08 20.64l-3.58-3 3.18-3.79 1.31-1.57M9.55 5.93a3.8 3.8 0 0 1-1.87 6.36M21.09 4.67a3.8 3.8 0 0 1-6.36-1.87"/><path class="cls-1" d="M3.47 14.34c.3.11.59.27.86.47a3.544 3.544 0 0 1 .74 4.96c-.2.27-.42.5-.67.69M56.29 53.02c.02-.24.26-3.55.28-3.78l.1-2.82c.02-8.47-2.35-14.63-3.44-17-.31-.68-.78-1.27-1.37-1.74l-6.19-4.93v13.04c0 1.08-1.47 1.41-1.94.44l-3.98-7.46a1.515 1.515 0 0 0-2.52-.23l-.6.75a5.293 5.293 0 0 0-.65 5.51l2.39 5.14c-.26 3.38 2.59 9.06 5.93 10.27v3.09M42.69 53.96H57.5v5.64H42.69z"/><path class="cls-1" d="M45.68 23.44v-9.61L31.07 2.51 16.46 13.83v22.9h20.28"/><path class="cls-1" d="M13.2 16.22L31.07 2.51l17.88 13.75"/><path class="cls-1" d="M35.86 30.51a9.49 9.49 0 0 1-4.79 1.3c-5.24 0-9.48-4.25-9.48-9.48s4.25-9.48 9.48-9.48 9.48 4.25 9.48 9.48c0 2.02-.63 3.89-1.71 5.43"/><path class="cls-1" d="M28.61 24.77c.41.64 1.36 1.1 2.47 1.1 1.48 0 2.68-.4 2.68-1.8s-1.2-1.8-2.68-1.8c-1.48 0-2.68-.49-2.68-1.8s1.2-1.8 2.68-1.8c1.02 0 1.9.38 2.36.94M31.07 18.68v-1.6M31.07 27.58v-1.61"/></g></svg>