<svg id="Layer_2" xmlns="http://www.w3.org/2000/svg" viewBox="0 0 52.12 59.79"><defs><style>.cls-1{fill:none;stroke:#0050b5;stroke-linecap:round;stroke-linejoin:round}</style></defs><g id="Layer_1-2"><path class="cls-1" d="M28.2 59.29V42.78l10.53-8.16 10.53 8.16v16.51H28.2z"/><path class="cls-1" d="M25.85 44.5l12.88-9.88 12.89 9.91"/><path class="cls-1" d="M22.81 59.29H3.94A3.44 3.44 0 0 1 .5 55.85V3.94C.5 2.04 2.04.5 3.94.5h34.69c1.9 0 3.44 1.54 3.44 3.44l-.11 26.29M26.89 17.6H7.12M34.32 9.93H7.12M21.14 51.8H7.12M16.4 44.13H7.12M36.4 52.11c.38.61 1.28 1.04 2.33 1.04 1.4 0 2.53-.38 2.53-1.7s-1.13-1.7-2.53-1.7-2.53-.47-2.53-1.7 1.13-1.7 2.53-1.7c.96 0 1.8.36 2.23.89M38.73 46.35v-1.52M38.73 54.76v-1.52"/><g><path class="cls-1" d="M8.7 35.95l10.67-8.81 5.83 5.82 9.12-9.12h-4.99M34.32 28.68v-4.63"/></g></g></svg>