<svg viewBox="0 0 62.83 64.77" xmlns="http://www.w3.org/2000/svg"><g fill="none" stroke="#0050b5" stroke-linecap="round" stroke-linejoin="round"><path d="M.5 40.4c0-6.05 2.25-11.59 5.97-15.81 4.36-4.94 10.74-8.06 17.85-8.07M24.32 16.53c-4.18 0-11.18 7.91-13.05 18.49"/><path d="M27.61 16.75c-1.08-.15-2.18-.22-3.29-.22-7.11 0-13.49 3.13-17.85 8.06 1.98 1.16 4.38 2.21 7.07 3.02 3.24.98 6.9 1.6 10.79 1.6 1.07 0 2.13-.05 3.17-.14"/><path d="M24.32 17.15v1.26l.01 10.8.01 11.16M47.84 40.35L.53 40.4M31.81 17.72a23.76 23.76 0 0 0-7.44-1.19M48.19 40.4c0-2.75-.46-5.39-1.32-7.85M37.89 40.44c-.01 13.17-8.72 23.84-13.57 23.83M31.84 21.97c-2.54-3.39-5.4-5.42-7.52-5.42M37.89 40.38c0-2.7-.37-5.29-1-7.71"/><path d="M48.19 40.4c0 6.05-2.25 11.59-5.97 15.81-4.36 4.94-10.74 8.06-17.85 8.07-7.14 0-13.56-3.14-17.94-8.11A23.8 23.8 0 0 1 .49 40.45M10.8 40.44c.01 13.17 8.72 23.84 13.57 23.83"/><path d="M42.22 56.21c-1.98-1.16-4.38-2.21-7.07-3.02-3.24-.98-6.9-1.6-10.79-1.6s-7.57.61-10.82 1.58c-2.71.8-5.12 1.85-7.11 3 4.38 4.97 10.79 8.11 17.94 8.1 7.11 0 13.49-3.13 17.85-8.06z"/><path d="M24.38 63.65l-.01-1.26-.01-10.8-.01-11.16M54.93 17.03l-8.52 8.53"/><ellipse cx="54.02" cy="23.88" rx="1.48" ry="1.9"/><ellipse cx="47.8" cy="18.25" rx="1.48" ry="1.9"/><ellipse cx="39.13" cy="20.53" rx="3.44" ry="4.72"/><path d="M41.84 17.82l-5.42 5.42M45.59.5L31.91 11.1v21.45h27.37V11.1z"/><path d="M28.86 13.33L45.59.5l16.74 12.88"/></g></svg>