<svg id="Layer_2" xmlns="http://www.w3.org/2000/svg" viewBox="0 0 63.75 43.44"><defs><style>.cls-1{stroke-linecap:round}.cls-1,.cls-2{fill:none;stroke:#0050b5;stroke-linejoin:round}</style></defs><g id="Layer_1-2"><circle class="cls-1" cx="52.77" cy="10.98" r="10.48"/><path class="cls-1" d="M50.2 13.54c.42.67 1.42 1.15 2.58 1.15 1.54 0 2.8-.42 2.8-1.88s-1.25-1.88-2.8-1.88c-1.54 0-2.8-.52-2.8-1.88s1.25-1.88 2.8-1.88c1.06 0 1.99.4 2.46.99M52.77 7.17V5.49M52.77 16.47v-1.69"/><path class="cls-2" d="M42.29 10.98H14.93v21.36h37.84V21.46"/><path class="cls-2" d="M10.99 39.25h3.95V16H6.57C3.22 16 .5 18.72.5 22.07v17.18h3.95"/><path class="cls-2" d="M45.57 39.25h4.47v-6.91H14.93v6.91h11.63"/><circle class="cls-2" cx="30.25" cy="39.25" r="3.69"/><circle class="cls-2" cx="41.88" cy="39.25" r="3.69"/><circle class="cls-2" cx="7.72" cy="39.25" r="3.69"/><path class="cls-2" d="M.5 29.5h6.28c1.4 0 2.53-1.13 2.53-2.53v-6.19H.83M34.02 39.25h3.65"/></g></svg>