<svg id="Layer_2" xmlns="http://www.w3.org/2000/svg" viewBox="0 0 51.01 44.05"><defs><style>.cls-1{fill:none;stroke:#0050b5;stroke-linecap:round;stroke-linejoin:round}</style></defs><g id="Layer_1-2"><path class="cls-1" d="M30.18 22.08H2.36c-1.03 0-1.86-.83-1.86-1.86V2.36C.5 1.33 1.33.5 2.36.5h34.3c1.03 0 1.86.83 1.86 1.86v4.09M15.22 17.86h13.12M18.71 10.66h8.82M22.44 14.36h5.9M.5 6.23h38.01"/><path class="cls-1" d="M6.16 16.14c.29.46.97.78 1.76.78 1.05 0 1.91-.29 1.91-1.28s-.85-1.28-1.91-1.28c-1.05 0-1.91-.35-1.91-1.28s.85-1.28 1.91-1.28c.73 0 1.36.27 1.68.67M7.92 11.8v-1.14M7.92 18.14v-1.15M49.55 33.06c-.02.24-.03.47-.05.71M37.13 37.19v-3.13c-3.38-1.23-6.27-6.98-6-10.4l-2.42-5.21c-.85-1.84-.6-4 .66-5.58l.61-.76c.68-.86 2.03-.74 2.55.23l4.03 7.55c.48.99 1.96.65 1.96-.45V6.23l6.27 4.99a4.88 4.88 0 0 1 1.39 1.76c1.1 2.4 3.5 8.64 3.48 17.21M35.51 37.85h15v5.71h-15z"/></g></svg>