<svg id="Layer_2" xmlns="http://www.w3.org/2000/svg" viewBox="0 0 41.63 46.03"><defs><style>.cls-1{fill:none;stroke:#0050b5;stroke-linecap:round;stroke-linejoin:round}</style></defs><g id="Layer_1-2"><path class="cls-1" d="M26.96 16.22l-.02 10.49M9.42 44.39H2.69A2.19 2.19 0 0 1 .5 42.2V9.1c0-1.21.98-2.19 2.19-2.19h11.59"/><circle class="cls-1" cx="22.56" cy="8.78" r="8.28"/><path class="cls-1" d="M4.55 15.46h6.85M4.55 29.56h6.85M4.55 20.28h13.3M4.55 25.09h9.73M37.49 42.71h3.64v-4.27a2.57 2.57 0 0 0-2.57-2.57h-2.11l-1.99-4.67h-9.22l-4.9 4.67h-3.78c-1.24 0-2.24 1-2.24 2.24v4.6h3.83M23.78 42.71h8.08"/><circle class="cls-1" cx="20.96" cy="42.71" r="2.82"/><circle class="cls-1" cx="34.67" cy="42.71" r="2.82"/><path class="cls-1" d="M20.78 10.75c.29.47.98.8 1.79.8 1.07 0 1.94-.29 1.94-1.3s-.87-1.3-1.94-1.3c-1.07 0-1.94-.36-1.94-1.3s.87-1.3 1.94-1.3c.74 0 1.38.28 1.71.68M22.57 6.33V5.17M22.57 12.78v-1.16"/></g></svg>