<svg id="Layer_2" xmlns="http://www.w3.org/2000/svg" viewBox="0 0 59.14 44.67"><defs><style>.cls-1{fill:none;stroke:#0050b5;stroke-linecap:round;stroke-linejoin:round}.cls-2{fill:#0050b5}</style></defs><g id="Layer_1-2"><path class="cls-1" d="M37.91 34.52H3.53C1.85 34.52.5 33.16.5 31.49V3.53C.5 1.86 1.86.5 3.53.5h43.82c1.68 0 3.03 1.36 3.03 3.03v6.91"/><circle class="cls-2" cx="25.44" cy="30.3" r="1.83"/><path class="cls-1" d="M41.72 25.9H1.7M32.48 44.17H18.33c-.54 0-.98-.44-.98-.98l2.77-7.68c0-.54.44-.98.98-.98h8.68c.54 0 .98.44.98.98l2.7 7.69c0 .54-.44.98-.98.98zM23.59 15.48c0 1.03.83 1.86 1.86 1.86s1.86-.83 1.86-1.86-.83-1.86-1.86-1.86-1.86-.83-1.86-1.86.83-1.86 1.86-1.86 1.86.83 1.86 1.86M25.45 17.34v1.86M25.45 8.05v1.86M58.53 42.46c0 .95-.78 1.71-1.73 1.71H43.44c-.95 0-1.73-.77-1.73-1.73V16.42c0-.95.77-1.73 1.73-1.73H56.9c.95 0 1.73.77 1.73 1.73l-.11 26.04zM52.9 17.51h-5.44M50.84 33.75H45.4M54.74 29.92H45.4M58.63 20.29H41.72"/><circle class="cls-2" cx="50.18" cy="41.25" r="1.15"/><path class="cls-1" d="M58.29 38.42H41.72"/></g></svg>