<svg id="Layer_2" xmlns="http://www.w3.org/2000/svg" viewBox="0 0 65.22 40.04"><defs><style>.cls-1,.cls-2{stroke-linejoin:round}.cls-1,.cls-2,.cls-3{stroke:#0050b5;stroke-linecap:round}.cls-1,.cls-4{fill:#0050b5}.cls-2,.cls-3{fill:none}.cls-3{stroke-miterlimit:10}</style></defs><g id="Layer_1-2"><path class="cls-2" d="M41.88 6.61H3.33C1.76 6.61.5 7.88.5 9.44V36.7c0 1.57 1.27 2.83 2.83 2.83h52.36c1.57 0 2.83-1.27 2.83-2.83V23.07"/><path class="cls-3" d="M51.74 26.89H41.13M51.74 33.12H30.53"/><path class="cls-4" d="M.5 17.09h47.82l-1.89-4.95H.5v4.95z"/><circle class="cls-2" cx="55.25" cy="9.97" r="9.47"/><path class="cls-2" d="M55.29 6.88v6.01M58.26 9.84h-6.01"/><path class="cls-1" d="M14.56 31.49v-7.97H6.59c4.4 0 7.97 3.57 7.97 7.97z"/><path class="cls-2" d="M6.06 23.35h8.63v8.63H6.06z"/></g></svg>