<svg id="Layer_2" xmlns="http://www.w3.org/2000/svg" viewBox="0 0 54.86 38.25"><defs><style>.cls-1{fill:none;stroke:#0050b5;stroke-linecap:round;stroke-linejoin:round}</style></defs><g id="Layer_1-2"><path class="cls-1" d="M15.22 10.24h39.14v19.15H15.22z"/><circle class="cls-1" cx="35.28" cy="19.82" r="4.6"/><path class="cls-1" d="M54.36 15.91c-.4.11-.82.17-1.26.17a4.6 4.6 0 0 1-4.43-5.84M48.68 29.4c-.11-.4-.17-.82-.17-1.26a4.6 4.6 0 0 1 5.84-4.43M15.65 23.3c.4-.11.82-.17 1.26-.17a4.6 4.6 0 0 1 4.43 5.84M21.43 10.24c.11.4.07.39.07.82a4.6 4.6 0 0 1-5.84 4.43"/><path class="cls-1" d="M.5 13.19v23.16c0 .77.63 1.4 1.4 1.4h37.67c.77 0 1.4-.63 1.4-1.4v-6.84M14.85 21.96L1.68 13.58M30.68 29.55l9.68 7.39M1.24 36.83l13.85-11.77M.5 13.19L20.86.5l15.07 9.58M14.85 13.19H.51"/></g></svg>