<svg id="Layer_2" xmlns="http://www.w3.org/2000/svg" viewBox="0 0 49.81 45.73"><defs><style>.cls-1{fill:none;stroke:#0050b5;stroke-linecap:round;stroke-linejoin:round}</style></defs><g id="Layer_1-2"><path class="cls-1" d="M25 .5L14.34 8.76v16.72l7.28-.02V17.1h6.8v8.36l7.25.02V8.76L25 .5z"/><path class="cls-1" d="M11.96 10.5L25 .5l13.05 10.03"/><path class="cls-1" transform="rotate(-172.91 44.24 37.428)" d="M40.05 30.09h8.39v14.68h-8.39z"/><path class="cls-1" d="M39.3 43.15l-18.18 1.73c-.69.07-1.38-.09-1.97-.45L1.03 33.4c-.37-.23-.57-.65-.52-1.08l.26-2.1c.09-.7.79-1.13 1.45-.9l12.89 4.49"/><path class="cls-1" d="M40.86 30.67l-9.44-1.17c-.63-.08-1.27.03-1.83.32l-5.02 2.51c-.57.28-1.21.39-1.83.32l-6.58-.82a.794.794 0 0 0-.88.68l-.34 2.75c-.05.37.17.71.52.84l7.53 2.69c.63.23 1.32.25 1.97.06l6.68-1.93M43.72 41.59"/></g></svg>