<?xml version="1.0" encoding="UTF-8"?><svg id="Layer_2" xmlns="http://www.w3.org/2000/svg" viewBox="0 0 75.5 31.2"><defs><style>.cls-1{fill:none;stroke:#0050b5;stroke-linecap:round;stroke-linejoin:round;}</style></defs><g id="Layer_1-2"><g><line class="cls-1" x1="62.19" y1="27.23" x2="52.49" y2="27.23"/><path class="cls-1" d="M45.33,27.23h-4.37l.93-5.25c.31-1.75,1.98-3.17,3.73-3.17h2.6l3.46-5.74h11.34l5.01,5.74h4.66c1.52,0,2.54,1.24,2.27,2.76l-1,5.66h-4.55"/><ellipse class="cls-1" cx="65.78" cy="27.23" rx="3.78" ry="3.17" transform="translate(-1.12 51.57) rotate(-42.48)"/><ellipse class="cls-1" cx="48.91" cy="27.23" rx="3.78" ry="3.17" transform="translate(-5.55 40.18) rotate(-42.48)"/><path class="cls-1" d="M37.16,27.45H15.86c-1.28,0-2.14-1.04-1.91-2.32L17.89,2.82c.23-1.28,1.45-2.32,2.73-2.32H63.47c1.28,0,2.14,1.04,1.91,2.32l-1.23,6.98"/><line class="cls-1" x1="23.32" y1="14.06" x2="32.92" y2="14.06"/><line class="cls-1" x1="21.63" y1="20.47" x2="35.47" y2="20.47"/><line class="cls-1" x1="17.04" y1="7.66" x2="64.52" y2="7.66"/><line class="cls-1" x1="6.35" y1="14.06" x2="15.07" y2="14.06"/><line class="cls-1" x1=".5" y1="20.47" x2="14" y2="20.47"/></g></g></svg>