<svg id="Layer_2" xmlns="http://www.w3.org/2000/svg" viewBox="0 0 39.23 43.87"><defs><style>.cls-1{fill:none;stroke:#0050b5;stroke-linecap:round;stroke-linejoin:round}</style></defs><g id="Layer_1-2"><path class="cls-1" d="M3.78 13.58h7.15v23.71H3.78zM28.3 13.58h7.15v23.71H28.3zM19.62.5L.5 13.57h38.23L19.62.5zM.5 37.31h38.23v6.06H.5zM16.43 28.9c.52.82 1.73 1.4 3.15 1.4 1.89 0 3.42-.51 3.42-2.29s-1.53-2.29-3.42-2.29-3.42-.63-3.42-2.29 1.53-2.29 3.42-2.29c1.3 0 2.43.49 3.01 1.2M19.58 21.12v-2.05M19.58 32.47v-2.05"/></g></svg>