<svg id="Layer_2" xmlns="http://www.w3.org/2000/svg" viewBox="0 0 72.29 43.04"><defs><style>.cls-1,.cls-2{fill:none;stroke:#0050b5}.cls-1{stroke-linecap:round;stroke-linejoin:round}.cls-2{stroke-miterlimit:10}</style></defs><g id="Layer_1-2"><path class="cls-1" d="M26.13 35.61H2.79A2.29 2.29 0 0 1 .5 33.32V11.27a2.29 2.29 0 0 1 2.29-2.29h23.34M5.91 30.4h14.37M5.91 21.52h11.45M5.91 26.09h8.33M.5 16.05h21.93M64.06 17.17l4.34 2.91C67.75 9.71 59.46 1.2 48.81.54S29.83 6.58 27.31 16M71.79 16.12l-3.34 3.96M30.7 25.87l-4.34-2.91c.65 10.37 8.94 18.88 19.59 19.54 10.11.62 18.98-6.04 21.5-15.46M22.96 26.92l3.35-3.96"/><circle class="cls-2" cx="47.52" cy="21.41" r="13.07"/><path class="cls-1" d="M44.28 24.53c.52.82 1.73 1.4 3.15 1.4 1.89 0 3.42-.51 3.42-2.29s-1.53-2.29-3.42-2.29-3.42-.63-3.42-2.29 1.53-2.29 3.42-2.29c1.3 0 2.43.49 3.01 1.2M47.43 16.76v-2.05M47.43 28.11v-2.05"/></g></svg>