<svg id="Layer_2" xmlns="http://www.w3.org/2000/svg" viewBox="0 0 49.81 43.19"><defs><style>.cls-1,.cls-2{fill:none;stroke:#0050b5;stroke-linecap:round;stroke-linejoin:round}.cls-3{fill:#0050b5}.cls-2{stroke-width:2px}</style></defs><g id="Layer_1-2"><path class="cls-3" d="M23.9 0c-6.05 0-10.95 4.9-10.95 10.95S17.85 21.9 23.9 21.9 34.85 17 34.85 10.95 29.95 0 23.9 0zm.75 16.44v1.46c0 .41-.34.75-.75.75s-.75-.34-.75-.75v-1.48c-1.32-.18-2.47-.8-3.03-1.7a.74.74 0 0 1 .24-1.03c.35-.22.81-.12 1.03.23.33.52 1.23 1.05 2.51 1.05 2.67 0 2.67-1.08 2.67-1.54s0-1.54-2.67-1.54-4.17-1.14-4.17-3.04c0-1.71 1.27-2.8 3.42-3V4.5c0-.41.34-.75.75-.75s.75.34.75.75v1.36c1.18.16 2.23.67 2.84 1.43a.747.747 0 1 1-1.16.94c-.45-.56-1.4-.92-2.42-.92-1.22 0-2.67.27-2.67 1.54s1.45 1.54 2.67 1.54c3.44 0 4.17 1.65 4.17 3.04 0 1.28-.62 2.78-3.42 3.01z"/><path class="cls-1" transform="rotate(-172.91 44.238 34.893)" d="M40.05 27.55h8.39v14.68h-8.39z"/><path class="cls-1" d="M39.3 40.62l-18.18 1.73c-.69.07-1.38-.09-1.97-.45L1.03 30.87c-.37-.23-.57-.65-.52-1.08l.26-2.1c.09-.7.79-1.13 1.45-.9l12.89 4.49"/><path class="cls-1" d="M40.86 28.13l-9.44-1.17c-.63-.08-1.27.03-1.83.32l-5.02 2.51c-.57.28-1.21.39-1.83.32l-6.58-.82a.794.794 0 0 0-.88.68l-.34 2.75c-.05.37.17.71.52.84l7.53 2.69c.63.23 1.32.25 1.97.06l6.68-1.93"/><path class="cls-2" d="M43.72 39.05"/></g></svg>