<svg id="Layer_2" xmlns="http://www.w3.org/2000/svg" viewBox="0 0 56.16 54.22"><defs><style>.cls-1{fill:none;stroke:#0050b5;stroke-linecap:round;stroke-linejoin:round}</style></defs><g id="Layer_1-2"><path class="cls-1" d="M.5.5h39.09v53.22H.5z"/><path class="cls-1" d="M5.58 42.09h6.72v6.72H5.58zM16.71 42.09h6.72v6.72h-6.72zM5.58 31h6.72v6.72H5.58zM16.71 31h6.72v6.72h-6.72zM27.84 31h6.72v17.81h-6.72zM5.58 19.91h6.72v6.72H5.58zM16.71 19.91h6.72v6.72h-6.72zM27.84 19.91h6.72v6.72h-6.72zM5.58 6.11h28.98v9.28H5.58zM55.66 6.26V3.75c0-1.44-1.17-2.61-2.61-2.61h-1.86c-1.44 0-2.61 1.17-2.61 2.61v42.23l3.36 6.99c.08.16.3.16.38 0l3.35-6.99V6.26zM53.01 51.46zM48.58 44.98zM55.66 8.03z"/></g></svg>