<svg id="Layer_2" xmlns="http://www.w3.org/2000/svg" viewBox="0 0 42.33 48.94"><defs><style>.cls-1{fill:none;stroke:#0050b5;stroke-linecap:round;stroke-linejoin:round}</style></defs><g id="Layer_1-2"><path class="cls-1" d="M8.86 20.5h30.95v5.68c0 2.15-1.75 3.9-3.9 3.9H12.76c-2.15 0-3.9-1.75-3.9-3.9V20.5zM6.84 17.17h34.99v3.33H6.84z"/><path class="cls-1" transform="rotate(-90 24.335 8.835)" d="M16 7.17h16.67v3.33H16z"/><path class="cls-1" d="M36.66 6.73l3.15 10.44H26L36.66 6.73zM26 2.04l10.66 4.68"/><circle class="cls-1" cx="36.21" cy="44.41" r="4.03"/><circle class="cls-1" cx="13.21" cy="42.81" r="5.63"/><path class="cls-1" d="M.5 8.83h5.82c.8 0 1.57.31 2.15.87l26.81 26.15c.59.58.93 1.37.93 2.2v2.32M24 24.85l-7.61 13.32"/></g></svg>