<svg id="Layer_2" xmlns="http://www.w3.org/2000/svg" viewBox="0 0 49.81 52.15"><defs><style>.cls-1{fill:none;stroke:#0050b5;stroke-linecap:round;stroke-linejoin:round}</style></defs><g id="Layer_1-2"><path class="cls-1" transform="rotate(-172.91 44.24 43.847)" d="M40.05 36.51h8.39v14.68h-8.39z"/><path class="cls-1" d="M39.3 49.57L21.12 51.3c-.69.07-1.38-.09-1.97-.45L1.03 39.82c-.37-.23-.57-.65-.52-1.08l.26-2.1c.09-.7.79-1.13 1.45-.9l12.89 4.49"/><path class="cls-1" d="M40.86 37.09l-9.44-1.17c-.63-.08-1.27.03-1.83.32l-5.02 2.51c-.57.28-1.21.39-1.83.32l-6.58-.82a.794.794 0 0 0-.88.68l-.34 2.75c-.05.37.17.71.52.84l7.53 2.69c.63.23 1.32.25 1.97.06l6.68-1.93M16.6 2.4h20.44v26.75H16.6zM37.04 8.49H16.6M20.71 13.12h12.22M20.71 18.79h12.22M20.71 24.47h12.22M32.5.5v3.8M26.82.5v3.8M21.15.5v3.8"/></g></svg>