<svg id="Layer_2" xmlns="http://www.w3.org/2000/svg" viewBox="0 0 44.44 52.09"><defs><style>.cls-1{fill:none;stroke:#0050b5;stroke-linecap:round;stroke-linejoin:round}</style></defs><g id="Layer_1-2"><path class="cls-1" d="M41.07 24.89V46.3H3.37V24.89M.5 46.3h43.44v5.29H.5zM7.78 17.72H.5v7.11h43.44v-7.11h-7.12"/><path class="cls-1" d="M15.89 32.8h12.59v13.5H15.89z"/><path id="Finger" class="cls-1" d="M19.33 19.51c-.47.55-.4 1.37.14 1.84.55.47 1.34.33 1.84-.15.37-.36.52-.61.78-.92.46-.55.4-1.38-.16-1.84-.55-.46-1.38-.36-1.84.16l-.77.91z"/><path id="Fingers" class="cls-1" d="M22.4 19.76c.53.27 2.84 1.46 2.84 1.46.66.33 1.61.1 1.94-.55.33-.65.26-1.55-.95-2.12.27.13 1.71.81 1.71.81.66.33 1.52.12 1.86-.54.33-.66-.04-1.51-.69-1.83l1.43.7c.66.33 1.51.1 1.84-.55.33-.65.06-1.48-.6-1.81l.79.39c.66.33 1.27-.04 1.6-.7.33-.66.03-1.45-.59-1.78-2.06-1.11-2.65-1.43-4.21-2.3"/><path id="Line_Hand" class="cls-1" d="M8.28 11.27s1.65 1.31 2.14 1.71c.51.42.98.81 1.86 1.84"/><path id="Line_Hand-2" class="cls-1" d="M12.84 3.87c1.57.77 1.34 1.12 3.25.26 1.87-.84 4.62-1.01 6.26-.2"/><path id="Line_Finger" class="cls-1" d="M29.28 14.01l2.5 1.31"/><path id="Line_Finger-2" class="cls-1" d="M27.1 15.91l2.01 1.07"/><path id="Hand" class="cls-1" d="M32.28 4.25s-.6.28-1.29.5q-.69.22-1.89-.51s-.57-.52-1.47-.86c-1.14-.43-2.47-.34-4.23.32-2.19.82-3.71 1.4-5.03 1.38-1.24-.02-1.83.74-1.53 1.58.47 1.34 2.57 1.66 3.62 1.33 2.49-.8 3.48 1.61 3.48 1.61.93 1.32 1.82 2.7 6.77.57"/><path id="Line_Hand-3" class="cls-1" d="M35.9 12.17c-.74.42-1.59 1.18-1.77 1.53"/><path id="Finger-2" class="cls-1" d="M18.69 19.94l1.27-1.47c.48-.56.4-1.4-.15-1.87-.56-.47-1.4-.4-1.87.16l-1.27 1.46c-.48.56-.41 1.4.15 1.87.56.48 1.4.41 1.87-.15"/><path id="Finger-3" class="cls-1" d="M17.87 16.8c.47-.57.39-1.4-.17-1.87-.56-.47-1.4-.39-1.87.18l-1.51 1.78c-.47.56-.4 1.4.16 1.87.56.47 1.4.4 1.87-.16l1.52-1.79z"/><path id="Finger-4" class="cls-1" d="M12.55 14.71l-.46.59c-.45.58-.35 1.41.23 1.87.58.45 1.41.35 1.86-.23l.75-.89c.46-.57.38-1.41-.19-1.87a1.33 1.33 0 0 0-1.87.19l-.35.39"/><path class="cls-1" transform="rotate(-26.85 36.667 6.67)" d="M33.84 1.69h5.69v9.95h-5.69z"/><path class="cls-1" d="M35.7 4.72"/><path class="cls-1" transform="rotate(28 7.75 6.226)" d="M4.9 1.25h5.69v9.95H4.9z"/><path class="cls-1" d="M8.81 4.23"/></g></svg>