<svg id="Layer_2" xmlns="http://www.w3.org/2000/svg" viewBox="0 0 57.07 56.85"><defs><style>.cls-1{stroke-linecap:round}.cls-1,.cls-2{fill:none;stroke:#0050b5;stroke-linejoin:round}</style></defs><g id="Layer_1-2"><path class="cls-1" transform="rotate(-172.91 50.744 47.395)" d="M45.93 38.97h9.63v16.86h-9.63z"/><path class="cls-1" d="M45.07 53.97l-20.88 1.99c-.79.08-1.59-.11-2.27-.52L1.11 42.77a1.28 1.28 0 0 1-.6-1.24l.3-2.42c.1-.8.91-1.3 1.67-1.04l14.81 5.15"/><path class="cls-1" d="M46.86 39.63l-10.84-1.35a3.75 3.75 0 0 0-2.11.36l-5.77 2.89c-.65.33-1.38.45-2.11.36l-7.55-.94c-.5-.06-.95.29-1.01.79l-.39 3.16c-.05.42.19.82.59.96l8.65 3.09c.73.26 1.52.28 2.26.07l7.67-2.21M50.15 52.17"/><path class="cls-2" d="M44.2 17.62c-.43.94-.99 1.83-1.64 2.67-1.54 2.02-3.37 3.75-5.28 5.41-2.63 2.29-8.04 6.94-8.13 7.01-.12-.08-5.53-4.72-8.16-7.01-1.9-1.66-3.74-3.39-5.28-5.41-1.2-1.58-2.13-3.29-2.41-5.29-.34-2.45.1-4.74 1.49-6.81 2.52-3.74 8.24-4.76 11.75-.87 1.28 1.28 1.49 2.52 2.57 2.51.65 0 1.33-1.22 2.61-2.51 1.61-1.79 3.69-2.54 5.71-2.47"/><path class="cls-2" d="M34.79 17.66h-3.8v-3.8h-3.71v3.8h-3.8v3.71h3.8v3.8h3.71v-3.8h3.8v-3.71z"/><circle class="cls-1" cx="45.07" cy="9.06" r="8.56"/><path class="cls-1" d="M42.85 11.27c.37.58 1.23.99 2.23.99 1.33 0 2.42-.36 2.42-1.62s-1.08-1.62-2.42-1.62c-1.33 0-2.42-.45-2.42-1.62s1.08-1.62 2.42-1.62c.92 0 1.72.34 2.13.85M45.07 5.77V4.32M45.07 13.8v-1.45"/></g></svg>