<svg id="Layer_2" xmlns="http://www.w3.org/2000/svg" viewBox="0 0 37.95 49.22"><defs><style>.cls-1{fill:none;stroke:#0050b5;stroke-linecap:round;stroke-linejoin:round}</style></defs><g id="Layer_1-2"><path class="cls-1" d="M14.74 46.16H3.17A2.67 2.67 0 0 1 .5 43.49V3.17C.5 1.7 1.7.5 3.17.5h26.95c1.48 0 2.67 1.2 2.67 2.67l-.09 21.45M20.99 14.09H5.64M13.32 26.63H5.64M26.76 20.36H5.64M26.76 7.83H5.64"/><circle class="cls-1" cx="27.37" cy="38.64" r="10.08"/><path class="cls-1" d="M24.89 41.1c.41.65 1.36 1.1 2.48 1.1 1.49 0 2.69-.4 2.69-1.81s-1.2-1.81-2.69-1.81-2.69-.5-2.69-1.81 1.2-1.81 2.69-1.81c1.02 0 1.91.38 2.37.95M27.37 34.98v-1.62M27.37 43.92V42.3"/></g></svg>