<svg id="Layer_2" xmlns="http://www.w3.org/2000/svg" viewBox="0 0 75.06 49.13"><defs><style>.cls-1{fill:none;stroke:#0050b5;stroke-linecap:round;stroke-linejoin:round}</style></defs><g id="Layer_1-2"><path class="cls-1" d="M34.29 16.8H.55v31.83h49.82V22.49M34.45 6.35H7.29L.5 16.74h33.73M16.41 6.58L12.35 16.8M25.72 6.58V16.8"/><path class="cls-1" d="M31.53 31.21h11.59v17.42H31.53zM8.35 31.21h15.74v10.85H8.35zM12.35 17.46c0 3.4-2.65 6.16-5.92 6.16S.55 20.67.55 17.27"/><path class="cls-1" d="M25.72 17.46c0 3.4-3.17 6.16-6.8 6.16s-6.57-2.76-6.57-6.16M37.04 20.81a6.29 6.29 0 0 1-5.27 2.82c-3.47 0-6.05-2.76-6.05-6.16M58.42 22.81c1.39.59 2.92.91 4.52.91 6.41 0 11.61-5.2 11.61-11.61S69.36.5 62.94.5c-1.41 0-2.76.25-4.01.71"/><circle class="cls-1" cx="45.05" cy="12.11" r="11.61"/><path class="cls-1" d="M59.95 15.05c.49.78 1.63 1.32 2.97 1.32 1.78 0 3.22-.48 3.22-2.16s-1.44-2.16-3.22-2.16c-1.78 0-3.22-.59-3.22-2.16s1.44-2.16 3.22-2.16c1.22 0 2.29.46 2.83 1.13M62.92 7.73V5.8M62.92 18.43v-1.94"/><circle class="cls-1" cx="45.09" cy="8.53" r="2.84"/><path class="cls-1" d="M41.83 11.95h6.52c1.07 0 1.93.87 1.93 1.93v3.44H39.9v-3.44c0-1.07.87-1.93 1.93-1.93z"/></g></svg>