<svg id="Layer_2" xmlns="http://www.w3.org/2000/svg" viewBox="0 0 57.26 48.72"><defs><style>.cls-1{fill:none;stroke:#0050b5;stroke-linecap:round;stroke-linejoin:round}</style></defs><g id="Layer_1-2"><path class="cls-1" transform="rotate(-90 13.905 43.905)" d="M9.59 36.36h8.63v15.1H9.59z"/><path class="cls-1" d="M10.67 29.12L6.72 25.1c-.38-.39-.63-.89-.72-1.43l-.98-6.41c-.05-.3.12-.58.4-.69l2.1-.82c.33-.13.7.04.83.36l1.95 5.01c.19.48.51.89.93 1.19l3.73 2.62c.42.3.75.71.93 1.19l2.6 6.69c.13.33.2.69.2 1.04v5.75H9.17v-2.59L.94 24.69c-.31-.47-.47-1.02-.44-1.58l.9-17.19c.02-.35.24-.66.57-.79l1.6-.62a.886.886 0 0 1 1.2.69l1.76 10.93"/><path class="cls-1" transform="rotate(-90 43.355 43.905)" d="M39.04 36.36h8.63v15.1h-8.63z"/><path class="cls-1" d="M46.59 29.12l3.95-4.02c.38-.39.63-.89.72-1.43l.98-6.41c.05-.3-.12-.58-.4-.69l-2.1-.82c-.33-.13-.7.04-.83.36l-1.95 5.01c-.19.48-.51.89-.93 1.19l-3.73 2.62c-.42.3-.75.71-.93 1.19l-2.6 6.69c-.13.33-.2.69-.2 1.04v5.75h9.51v-2.59l8.23-12.31c.31-.47.47-1.02.44-1.58l-.9-17.18a.903.903 0 0 0-.57-.79l-1.6-.62a.886.886 0 0 0-1.2.69l-1.76 10.93M39.07 9.46l2.58 1.51C40.91 5.07 35.87.5 29.77.5s-10.63 4.12-11.73 9.59M43.46 8.59l-1.78 2.38M20.32 15.61l-2.58-1.51c.74 5.9 5.78 10.47 11.88 10.47s10.63-4.12 11.73-9.59M15.94 16.48l1.77-2.38"/><path class="cls-1" d="M26.7 15.56c.52.82 1.73 1.4 3.15 1.4 1.89 0 3.42-.51 3.42-2.29s-1.53-2.29-3.42-2.29-3.42-.63-3.42-2.29 1.53-2.29 3.42-2.29c1.3 0 2.43.49 3.01 1.2M29.85 7.79V5.73M29.85 19.14v-2.06"/><circle class="cls-1" cx="47.38" cy="43.91" r="1.28"/><circle class="cls-1" cx="9.92" cy="43.91" r="1.28"/><path class="cls-1" d="M48.67 43.91"/></g></svg>