<svg id="Layer_2" xmlns="http://www.w3.org/2000/svg" viewBox="0 0 65.92 43.59"><defs><style>.cls-1{stroke-linecap:round}.cls-1,.cls-2{fill:none;stroke:#0050b5;stroke-linejoin:round}</style></defs><g id="Layer_1-2"><path class="cls-2" d="M50.79 38.64h-4.75v-25.1H59.8c1.99 0 3.61 1.62 3.61 3.61v21.49h-4.75"/><circle class="cls-2" cx="27.6" cy="38.64" r="4.44"/><circle class="cls-2" cx="13.61" cy="38.64" r="4.44"/><circle class="cls-2" cx="54.73" cy="38.64" r="4.44"/><path class="cls-2" d="M63.41 29.8h-7.56a3.04 3.04 0 0 1-3.04-3.04v-7.45h10.21M23.07 38.64h-4.4"/><path class="cls-2" d="M32.05 38.64h13.99v-25.1h19.38v-5.2a3.72 3.72 0 0 0-3.72-3.72H8.22C3.95 4.62.5 8.08.5 12.34v26.3h8.67"/><path class="cls-2" d="M10.64.5h35.4v4.12h-35.4zM34.69 19.31h11.36v19.33H34.69zM10.64 13.73h18.11v11.36H10.64zM19.7 14.4v10.02"/><path class="cls-1" d="M35.01 13.73h5.35M7.96 29.8h5.36M17.71 29.8h11.04"/></g></svg>