<svg id="Layer_2" xmlns="http://www.w3.org/2000/svg" viewBox="0 0 39.28 39.28"><defs><style>.cls-1{fill:none;stroke:#0050b5;stroke-linecap:round;stroke-linejoin:round}</style></defs><g id="Layer_1-2"><path class="cls-1" d="M30.65 30.3c9.55-9.95 9-26.2 6.77-28.43C35.18-.37 18.93-.92 8.98 8.63l-.35.35c-9.55 9.95-9 26.2-6.76 28.44 2.23 2.23 18.48 2.79 28.43-6.77l.35-.35z"/><path class="cls-1" d="M22.6 24.62c.39-.36.78-.73 1.17-1.11l.29-.29c4.66-4.74 7.91-9.84 9.7-13.45M17.85 28.55c.57-.42 1.14-.86 1.71-1.32M8.01 34.22c1.68-.64 4.05-1.82 6.71-3.52M23.93 8.03c-3.41 1.27-6.78 3.18-9.63 5.92l-.35.35c-2.71 2.82-4.6 6.14-5.87 9.51"/><path class="cls-1" d="M21.18 11.57c-.43-.56-.97-1.08-1.64-1.45l-.08-.05a5.52 5.52 0 0 0-2.09-.56M16.07 15.92c-.43-.56-.97-1.08-1.64-1.45l-.08-.05a5.52 5.52 0 0 0-2.09-.56M12.25 21.07c-.43-.56-.97-1.08-1.64-1.45l-.08-.05a5.52 5.52 0 0 0-2.09-.56"/></g></svg>