<svg id="Layer_2" xmlns="http://www.w3.org/2000/svg" viewBox="0 0 32.34 44.76"><defs><style>.cls-1{fill:none;stroke:#0050b5;stroke-linecap:round;stroke-linejoin:round}</style></defs><path class="cls-1" d="M22.88 14.08s.58 2.07-4.16 10.39c-4.77 8.39-6.8 8.89-6.8 8.89l-4.51-1.69c-1.14-.47-2.38-.11-2.92.83L.77 39.05c-.69 1.21 0 2.84 1.45 3.45l2.38.99c7.88 3.47 16.3-5.54 21.56-14.8 5.11-8.99 8.9-21.22 1.68-26.09l-2.07-1.53c-1.27-.94-3.02-.7-3.71.52l-3.72 6.55c-.54.95-.21 2.2.78 2.93l3.76 3.01z" id="Layer_1-2"/></svg>