<svg id="Layer_2" xmlns="http://www.w3.org/2000/svg" viewBox="0 0 56.92 41.96"><defs><style>.cls-1{fill:#0050b5}</style></defs><g id="Layer_1-2"><g id="_"><path class="cls-1" d="M52.55 41.96H4.37C1.96 41.96 0 40 0 37.59V4.37C0 1.96 1.96 0 4.37 0h48.18c2.41 0 4.37 1.96 4.37 4.37v33.22c0 2.41-1.96 4.37-4.37 4.37zM4.37 2A2.37 2.37 0 0 0 2 4.37v33.22a2.37 2.37 0 0 0 2.37 2.37h48.18a2.37 2.37 0 0 0 2.37-2.37V4.37A2.37 2.37 0 0 0 52.55 2H4.37z"/><path class="cls-1" d="M41.57 10.53H1c-.55 0-1-.45-1-1s.45-1 1-1h40.57c.55 0 1 .45 1 1s-.45 1-1 1zM55.89 10.53h-7.1c-.55 0-1-.45-1-1s.45-1 1-1h7.1c.55 0 1 .45 1 1s-.45 1-1 1z"/><circle class="cls-1" cx="5.65" cy="5.72" r="1.08"/><circle class="cls-1" cx="9.44" cy="5.72" r="1.08"/><circle class="cls-1" cx="13.24" cy="5.72" r="1.08"/></g><path class="cls-1" d="M33.48 23.52H23.44c-.55 0-1-.45-1-1v-4.69c0-1.77 1.44-3.21 3.21-3.21h5.62c1.77 0 3.21 1.44 3.21 3.21v4.69c0 .55-.45 1-1 1zm-9.04-2h8.04v-3.69c0-.67-.54-1.21-1.21-1.21h-5.62c-.67 0-1.21.54-1.21 1.21v3.69z"/><path class="cls-1" d="M35.37 35.94H21.55a2.37 2.37 0 0 1-2.37-2.37v-9.68a2.37 2.37 0 0 1 2.37-2.37h13.82a2.37 2.37 0 0 1 2.37 2.37v9.68a2.37 2.37 0 0 1-2.37 2.37zM21.55 23.52c-.2 0-.37.17-.37.37v9.68c0 .2.17.37.37.37h13.82c.2 0 .37-.17.37-.37v-9.68c0-.2-.17-.37-.37-.37H21.55z"/><path class="cls-1" d="M28.46 30.42c-1.69 0-3.07-1.38-3.07-3.07s1.38-3.07 3.07-3.07 3.07 1.38 3.07 3.07-1.38 3.07-3.07 3.07zm0-4.14a1.07 1.07 0 0 0 0 2.14 1.07 1.07 0 0 0 0-2.14z"/><path class="cls-1" d="M28.46 32.84c-.55 0-1-.45-1-1v-2.42c0-.55.45-1 1-1s1 .45 1 1v2.42c0 .55-.45 1-1 1z"/></g></svg>