<svg id="Layer_2" xmlns="http://www.w3.org/2000/svg" viewBox="0 0 53.77 47.71"><defs><style>.cls-1{fill:none;stroke:#0050b5;stroke-linecap:round;stroke-linejoin:round}</style></defs><g id="Layer_1-2"><path class="cls-1" d="M36.8 4.87h16.47v42.35H36.8zM20.33 22.6H36.8v24.61H20.33zM20.33 22.6H36.8l-8.23-6.96-8.24 6.96z"/><path class="cls-1" d="M3.87 34.91h16.47v12.31H3.87zM.5 34.61h19.83v-5.56H5.34L.5 34.61zM24.66 37.05h7.82v5.84h-7.82zM24.66 27.28h7.82v5.84h-7.82zM41.13 10.63h7.82v4.96h-7.82zM41.13 23.37h7.82v4.96h-7.82zM41.13 36.1h7.82v4.96h-7.82z"/><path class="cls-1" d="M9.64 40.84h4.93v6.37H9.64zM21.69 3.31h-3.58C17.88 1.72 16.52.5 14.87.5s-3 1.22-3.24 2.81h-.22C9.33 3.31 7.64 5 7.64 7.08s1.69 3.77 3.77 3.77h10.28c2.08 0 3.77-1.69 3.77-3.77s-1.69-3.77-3.77-3.77z"/></g></svg>