<svg id="Layer_2" xmlns="http://www.w3.org/2000/svg" viewBox="0 0 48.4 42.43"><defs><style>.cls-1{fill:none;stroke:#0050b5;stroke-linejoin:round}</style></defs><g id="Layer_1-2"><circle class="cls-1" cx="32.11" cy="14.2" r="4.85"/><path class="cls-1" d="M45.52 5.47C41.77-.1 33.27-1.61 28.05 4.18c-1.9 1.91-2.92 3.73-3.88 3.73-1.61.01-1.93-1.82-3.83-3.73C15.13-1.61 6.63-.1 2.88 5.47.81 8.55.16 11.95.66 15.6c.41 2.97 1.79 5.51 3.58 7.86 2.11 2.77 4.6 5.17 7.2 7.47v-4.79h9.69v13.17c1.75 1.49 3.02 2.57 3.09 2.62.05-.04 1.31-1.12 3.05-2.61V23.3h9.69v7.63c2.6-2.3 5.09-4.7 7.2-7.47 1.78-2.35 3.17-4.89 3.58-7.86.5-3.65-.15-7.05-2.22-10.13z"/><circle class="cls-1" cx="16.29" cy="17.04" r="4.85"/></g></svg>