<svg id="Layer_2" xmlns="http://www.w3.org/2000/svg" viewBox="0 0 71.12 59.64"><defs><style>.cls-1{fill:none;stroke:#0050b5;stroke-linecap:round;stroke-linejoin:round}.cls-2{fill:#0050b5}</style></defs><g id="Layer_1-2"><path class="cls-1" d="M28.5 32.68c8.87-9.24 8.36-24.33 6.28-26.4-2.07-2.07-17.16-2.59-26.4 6.28l-.32.32C-.82 22.13-.31 37.22 1.77 39.29c2.07 2.07 17.16 2.59 26.4-6.28l.32-.32z"/><path class="cls-1" d="M21.02 27.41c.36-.34.72-.68 1.08-1.04l.27-.27c4.33-4.4 7.35-9.13 9-12.49M16.61 31.06c.53-.39 1.06-.8 1.59-1.22M7.47 36.32c1.56-.6 3.76-1.69 6.23-3.27M22.25 12c-3.17 1.18-6.29 2.95-8.94 5.5l-.32.32c-2.51 2.62-4.27 5.7-5.45 8.83"/><path class="cls-1" d="M19.7 15.29c-.4-.52-.9-1-1.52-1.35l-.08-.04c-.63-.32-1.3-.47-1.94-.52M14.95 19.32c-.4-.52-.9-1-1.52-1.35l-.08-.04c-.63-.32-1.3-.47-1.94-.52M11.41 24.11c-.4-.52-.9-1-1.52-1.35l-.08-.04c-.63-.32-1.3-.47-1.94-.52M59.98.5h-9.75v14.68a4.15 4.15 0 0 0-.79-.08c-2.49 0-4.52 2.02-4.52 4.52s2.02 4.52 4.52 4.52c2.29 0 4.16-1.71 4.46-3.92l.06-15.99h6.03V.5zM66.19 22.35l1.11 1.81c.35.58.85 1.05 1.45 1.37l1.87 1-1.81 1.11c-.58.35-1.05.85-1.37 1.45l-1 1.87-1.11-1.81c-.35-.58-.85-1.05-1.45-1.37l-1.87-1 1.81-1.11c.58-.35 1.05-.85 1.37-1.45l1-1.87z"/><circle class="cls-1" cx="40.48" cy="4.15" r="1.71"/><path class="cls-1" d="M30.07 55.82l-2.93-3.77L43.09 38.2l4.36 5.61-17.38 12.01zM45.97 35.64l4.58 5.9a5.65 5.65 0 0 0 4.52-1.08c2.47-1.91 2.91-5.46 1-7.93s-5.46-2.91-7.93-1a5.66 5.66 0 0 0-2.17 4.11z"/><path class="cls-1" d="M45.43 34.93l5.76 7.43-3.74 1.45-4.36-5.61 2.34-3.27zM7.87 47.01c19.27-.86.82 11.19 6.71 12.05s13.94-5.24 13.94-5.24"/><circle class="cls-2" cx="48.16" cy="34.93" r=".58"/><circle class="cls-2" cx="50.09" cy="37.23" r=".58"/><circle class="cls-2" cx="52.06" cy="39.71" r=".58"/><circle class="cls-2" cx="52.84" cy="37.3" r=".58"/><circle class="cls-2" cx="50.69" cy="34.8" r=".58"/></g></svg>