<svg id="Layer_2" xmlns="http://www.w3.org/2000/svg" viewBox="0 0 55.34 49.63"><defs><style>.cls-1{fill:none;stroke:#0050b5;stroke-linecap:round;stroke-linejoin:round}</style></defs><g id="Layer_1-2"><path class="cls-1" d="M.5.5v40.68h20.77l6.4 7.95 6.39-7.95h20.78V.5H.5z"/><path class="cls-1" d="M23.51 26.32s1.31-.08 5.69-4.46 4.46-5.69 4.46-5.69l-1.57-2.27c-.42-.56-.36-1.35.13-1.85l3.44-3.44c.64-.64 1.7-.57 2.24.15l.89 1.17c3.06 3.86-1.27 10.5-6.15 15.37-4.73 4.73-11.56 9.34-15.37 6.15l-1.17-.89c-.72-.55-.79-1.6-.15-2.24l3.44-3.44c.5-.5 1.29-.55 1.85-.13l2.27 1.57z"/></g></svg>