<svg id="Layer_2" xmlns="http://www.w3.org/2000/svg" viewBox="0 0 45.67 47.56"><defs><style>.cls-1{fill:none;stroke:#0050b5;stroke-linecap:round;stroke-linejoin:round}</style></defs><g id="Layer_1-2"><path class="cls-1" d="M21.53 46.83H.5V.5h34.03v19.82"/><path class="cls-1" d="M4.92 36.71h5.85v5.85H4.92zM14.61 36.71h5.85v5.85h-5.85zM4.92 27.05h5.85v5.85H4.92zM14.61 27.05h5.85v5.85h-5.85zM4.92 17.4h5.85v5.85H4.92zM14.61 17.4h5.85v5.85h-5.85zM24.3 17.4h5.85v5.85H24.3zM4.92 5.38h25.23v8.08H4.92z"/><circle class="cls-1" cx="34.65" cy="36.53" r="10.53"/><path class="cls-1" d="M31.74 39.47c.46.73 1.53 1.24 2.79 1.24 1.67 0 3.03-.45 3.03-2.03s-1.35-2.03-3.03-2.03c-1.67 0-3.03-.56-3.03-2.03s1.35-2.03 3.03-2.03c1.15 0 2.15.43 2.66 1.07M34.53 32.59v-1.82M34.53 42.64v-1.81"/></g></svg>