<svg id="Layer_2" xmlns="http://www.w3.org/2000/svg" viewBox="0 0 66.49 52.44"><defs><style>.cls-1{fill:none;stroke:#0050b5;stroke-linecap:round;stroke-linejoin:round}</style></defs><g id="Layer_1-2"><path class="cls-1" d="M16.05 25.67h34.27v26.27H16.05zM63.75 20.05v16.16H50.44M2.75 20.05v16.16h13.3M57.09 37.39v9.28M49.79 30.79H16.05M50.44 46.67h13.31"/><circle class="cls-1" cx="63.75" cy="48.92" r="2.25"/><path class="cls-1" d="M9.4 37.39v9.28M16.05 46.67H2.75"/><circle class="cls-1" cx="2.75" cy="48.92" r="2.25"/><path class="cls-1" d="M52.13 15.86h5.81c1 0 1.81.81 1.81 1.81v18.54h-9.42V17.67c0-1 .81-1.81 1.81-1.81z"/><circle class="cls-1" cx="55.03" cy="8.12" r="4.78"/><path class="cls-1" d="M8.37 15.86h5.81c1 0 1.81.81 1.81 1.81v18.54H6.57V17.67c0-1 .81-1.81 1.81-1.81z"/><circle class="cls-1" cx="11.28" cy="8.12" r="4.78"/><path class="cls-1" d="M35.8.5h3.71v17.14H35.8zM26.7.5h3.71v17.14H26.7zM37.66 17.64v8.03M28.56 17.64v8.03"/></g></svg>