<svg id="Layer_2" xmlns="http://www.w3.org/2000/svg" viewBox="0 0 28.35 48.66"><defs><style>.cls-1{fill:none;stroke:#0050b5;stroke-linecap:round;stroke-linejoin:round}.cls-2{fill:#0050b5}</style></defs><g id="Layer_1-2"><path class="cls-1" d="M24.89 48.16H3.29A2.79 2.79 0 0 1 .5 45.37V3.29A2.79 2.79 0 0 1 3.29.5h21.77a2.79 2.79 0 0 1 2.79 2.79v19.75l-.17 22.35a2.793 2.793 0 0 1-2.79 2.77zM18.57 4.34h-8.8M27.84 8.15H.5"/><circle class="cls-2" cx="14.17" cy="43.45" r="1.86"/><path class="cls-1" d="M27.22 38.87H.5M11.03 26.58c.52.82 1.73 1.4 3.15 1.4 1.89 0 3.42-.51 3.42-2.29s-1.53-2.29-3.42-2.29-3.42-.63-3.42-2.29 1.53-2.29 3.42-2.29c1.3 0 2.43.49 3.01 1.2M14.17 18.81v-2.05M14.17 30.16v-2.05"/></g></svg>