<svg id="Layer_2" xmlns="http://www.w3.org/2000/svg" viewBox="0 0 45.67 48.67"><defs><style>.cls-1{fill:none;stroke:#0050b5;stroke-linecap:round;stroke-linejoin:round}.cls-2{fill:#0050b5}</style></defs><g id="Layer_1-2"><path class="cls-1" d="M27.75 34.91l-.06 10.49a2.793 2.793 0 0 1-2.79 2.77H3.29A2.79 2.79 0 0 1 .5 45.38V3.29A2.79 2.79 0 0 1 3.29.5h21.78a2.79 2.79 0 0 1 2.79 2.79v8.51M18.57 4.34h-8.8M27.85 8.15H.5"/><circle class="cls-2" cx="14.17" cy="43.46" r="1.86"/><path class="cls-1" d="M27.29 38.89H.5"/><rect class="cls-1" x="5.46" y="12.37" width="39.71" height="22.54" rx="1.94" ry="1.94"/><path class="cls-1" d="M20.83 23.71h17.95M5.46 18.36h39.71M20.64 29.08h17.95M10.74 27.6c.26.41.87.7 1.57.7.94 0 1.71-.26 1.71-1.15S13.26 26 12.31 26c-.94 0-1.71-.32-1.71-1.15s.76-1.15 1.71-1.15c.65 0 1.21.24 1.5.6M12.31 23.72v-1.03M12.31 29.39v-1.02"/></g></svg>