<svg id="Layer_2" xmlns="http://www.w3.org/2000/svg" viewBox="0 0 63.15 56.65"><defs><style>.cls-1{fill:none;stroke:#0050b5;stroke-linecap:round;stroke-linejoin:round}.cls-2{fill:#0050b5}</style></defs><g id="Layer_1-2"><path class="cls-1" d="M20.29 25.4v14.21h2.95v4.74l8.26-4.74h11.36V25.4H20.29z"/><circle class="cls-2" cx="25.71" cy="32.63" r="1.2"/><circle class="cls-2" cx="31.58" cy="32.63" r="1.2"/><circle class="cls-2" cx="37.45" cy="32.63" r="1.2"/><path class="cls-1" d="M10.2 48.81v-27.4C10.2 9.86 19.56.5 31.11.5c12.06 0 21.84 9.78 21.84 21.84v26.48"/><path class="cls-1" d="M30.43 53.13H13.91a3.71 3.71 0 0 1-3.71-3.71V36.81M31.42 50.71h9.7v5.44h-9.7zM52.95 30.48h7.4a2.3 2.3 0 0 1 2.3 2.3V46.5a2.3 2.3 0 0 1-2.3 2.3h-7.4V30.48z"/><path class="cls-1" d="M.5 30.48h7.4a2.3 2.3 0 0 1 2.3 2.3V46.5a2.3 2.3 0 0 1-2.3 2.3H.5V30.48z" transform="rotate(180 5.35 39.65)"/></g></svg>