<svg id="Layer_2" xmlns="http://www.w3.org/2000/svg" viewBox="0 0 39.44 47.79"><defs><style>.cls-1{fill:none;stroke:#0050b5;stroke-linecap:round;stroke-linejoin:round}</style></defs><g id="Layer_1-2"><path class="cls-1" d="M13.87 4.43H3.01C1.62 4.43.5 5.55.5 6.94v37.84c0 1.39 1.12 2.51 2.51 2.51H28.3c1.39 0 2.51-1.12 2.51-2.51l-.08-20.13"/><path class="cls-1" d="M32.03 4.43a9.423 9.423 0 0 0-6.31-2.41 9.47 9.47 0 1 0 8.77 5.89M5.13 32.41h7.83M5.13 26.9h15.2M5.13 21.39h11.13M20.73 33.23h4.99v8.56h-4.99zM15.66 37.24h4.99v4.55h-4.99z"/><path class="cls-1" d="M36.5.5L25.8 11.2l-3.02-3.03-2.45 2.45 3.03 3.02 2.44 2.44L38.94 2.94 36.5.5z"/></g></svg>