<svg id="Layer_2" xmlns="http://www.w3.org/2000/svg" viewBox="0 0 62.54 56.06"><defs><style>.cls-1{fill:#0050b5}.cls-2,.cls-3{stroke-width:2px}.cls-2,.cls-3,.cls-4{fill:none;stroke:#0050b5;stroke-linejoin:round}.cls-2,.cls-4{stroke-linecap:round}.cls-4{stroke-width:1.5px}</style></defs><g id="Layer_1-2"><g id="_"><path class="cls-2" d="M58.29 24.37l-.11 19.04M3.87 43.38V12.83c0-1.83 1.48-3.32 3.32-3.32h31.04"/></g><path class="cls-2" d="M52.09 26.14v14.58H10.16V15.41h28.06"/><path class="cls-3" d="M37.13 48.04a2.727 2.727 0 0 1-2.73 2.7h-6.56c-1.5 0-2.71-1.21-2.73-2.7H1v2.53a4.49 4.49 0 0 0 4.49 4.49h51.27a4.49 4.49 0 0 0 4.49-4.49v-2.53H37.13z"/><g><path class="cls-2" d="M28.99 36.22h-7.62c-.23 0-.41-.18-.41-.39v-3.8c0-.22.18-.39.41-.39h7.62c.23 0 .41.18.41.39v3.8c0 .22-.18.39-.41.39zM40.89 36.22h-7.62c-.23 0-.41-.18-.41-.39v-3.8c0-.22.18-.39.41-.39h7.62c.23 0 .41.18.41.39v3.8c0 .22-.18.39-.41.39zM14.89 20.63h4.72M14.89 24.04h9.72"/><path class="cls-4" d="M29.56 26.51c.26.41.86.7 1.57.7.94 0 1.7-.26 1.7-1.14s-.76-1.14-1.7-1.14-1.7-.31-1.7-1.14.76-1.14 1.7-1.14c.65 0 1.21.24 1.5.6M31.13 22.64v-1.02M31.13 28.3v-1.03"/></g><g><path class="cls-2" d="M42.65 1v12.04c0 5.22 8.17 8.86 9.48 8.86s9.41-3.63 9.41-8.85V1H42.65z"/><path class="cls-2" d="M50.49 4.32h3.22c.7 0 1.26.57 1.26 1.26v2.68h-5.74V5.58c0-.7.57-1.26 1.26-1.26z"/><rect class="cls-2" x="47.36" y="8.27" width="9.47" height="7.1" rx=".78" ry=".78"/><circle class="cls-1" cx="52.09" cy="11.25" r="1.34"/><path class="cls-4" d="M52.09 12.23v.85"/></g></g></svg>