<svg id="Layer_2" xmlns="http://www.w3.org/2000/svg" viewBox="0 0 49.81 50.99"><defs><style>.cls-1,.cls-2{fill:none;stroke:#0050b5}.cls-1{stroke-linecap:round;stroke-linejoin:round}.cls-2{stroke-miterlimit:10}</style></defs><g id="Layer_1-2"><path class="cls-1" transform="rotate(-172.91 44.24 42.693)" d="M40.05 35.35h8.39v14.68h-8.39z"/><path class="cls-1" d="M39.3 48.41l-18.18 1.73c-.69.07-1.38-.09-1.97-.45L1.03 38.66c-.37-.23-.57-.65-.52-1.08l.26-2.1c.09-.7.79-1.13 1.45-.9l12.89 4.49"/><path class="cls-1" d="M40.86 35.93l-9.44-1.17c-.63-.08-1.27.03-1.83.32l-5.02 2.51c-.57.28-1.21.39-1.83.32l-6.58-.82a.794.794 0 0 0-.88.68l-.34 2.75c-.05.37.17.71.52.84l7.53 2.69c.63.23 1.32.25 1.97.06l6.68-1.93M43.72 46.85"/><circle class="cls-1" cx="23" cy="20.17" r="6.74"/><path class="cls-1" d="M21.25 21.91c.29.46.97.78 1.75.78 1.05 0 1.9-.29 1.9-1.28s-.85-1.28-1.9-1.28c-1.05 0-1.9-.35-1.9-1.28s.85-1.28 1.9-1.28c.72 0 1.35.27 1.68.67M23 17.58v-1.14M23 23.91v-1.15"/><path id="Path_88" class="cls-2" d="M12.83 22.96c-.82-2.83-.55-6.02 1.12-8.83l4-6.74-.09-.17-3.37-5.96c1.91-1.44 4.59-.51 5.7.59l.25-.19c.35-.26.74-.47 1.16-.61.46-.16.95-.19 1.43-.2.5.01.97.05 1.43.2.42.14.81.34 1.16.61l.25.19c1.11-1.1 3.78-2.09 5.78-.59l-3.46 5.96-.09.17c.63 1.05 4 6.73 4 6.73 3.99 6.72-.01 15.59-7.76 16.58-.24.03-.48.05-.72.07-.19.01-.39.02-.58.02s-.39 0-.58-.02c-.24-.01-.48-.04-.73-.07-4.5-.58-7.74-3.82-8.88-7.75z"/><path class="cls-1" d="M16.71 7.45H29.3"/></g></svg>