<svg id="Layer_2" xmlns="http://www.w3.org/2000/svg" viewBox="0 0 43.05 51.83"><defs><style>.cls-1,.cls-2{fill:none;stroke:#0050b5;stroke-linecap:round;stroke-linejoin:round}.cls-2{fill:#0050b5;stroke-width:.25px}</style></defs><g id="Layer_1-2"><path class="cls-1" d="M26.93 3.26l-4.4 2.64-4.41-2.64-4.4 2.64-4.41-2.64-4.4 2.64L.5 3.26v40.05l8.01 8.02h27.23V16.38"/><path class="cls-1" d="M8.51 46.17v5.16L.5 43.31h6.39"/><path class="cls-1" d="M8.51 47.32v-4.01H6.89"/><path class="cls-1" transform="rotate(180 13.17 33.48)" d="M6.25 31.47h13.84v4.02H6.25z"/><path class="cls-1" d="M6.09 12.5h21.65v14.53H6.09zM6.09 16.61h18.48M13.46 16.61v9.84M24.58 43.3c.52.82 1.73 1.4 3.15 1.4 1.89 0 3.42-.51 3.42-2.29s-1.53-2.29-3.42-2.29-3.42-.63-3.42-2.29 1.53-2.29 3.42-2.29c1.3 0 2.43.49 3.01 1.2M27.73 35.53v-2.05M27.73 46.88v-2.05"/><circle class="cls-1" cx="35.7" cy="6.73" r="6.23"/><path class="cls-2" d="M41.58.55l-5.89 5.89-1.66-1.66-1.35 1.34 1.67 1.67 1.34 1.34 7.24-7.23L41.58.55z"/></g></svg>