<svg id="Layer_2" xmlns="http://www.w3.org/2000/svg" viewBox="0 0 52.32 41.64"><defs><style>.cls-1{fill:none;stroke-linecap:round;stroke-linejoin:round;stroke:#0050b5}.cls-2{stroke:#0050b5;fill:#0050b5;stroke-miterlimit:10}</style></defs><g id="Layer_1-2"><path class="cls-1" d="M.5 22.09h14.71v2.95c0 1.09-.88 1.97-1.97 1.97H2.47c-1.09 0-1.97-.88-1.97-1.97v-2.95zM44.53 7.13l7.29 14.96H37.11l7.42-14.96zM37.11 22.09h14.71v2.95c0 1.09-.88 1.97-1.97 1.97H39.08c-1.09 0-1.97-.88-1.97-1.97v-2.95zM7.92 7.13l7.29 14.96H.5L7.92 7.13z"/><path class="cls-1" d="M.5 22.09h14.71v2.95c0 1.09-.88 1.97-1.97 1.97H2.47c-1.09 0-1.97-.88-1.97-1.97v-2.95z"/><path class="cls-1" d="M18.77 33.34h14.71v1.93c0 1.09-.88 1.97-1.97 1.97H20.74c-1.09 0-1.97-.88-1.97-1.97v-1.93z" transform="rotate(180 26.125 35.29)"/><path class="cls-1" d="M14.43 37.24h23.39v1.42a2.48 2.48 0 0 1-2.48 2.48H16.91a2.48 2.48 0 0 1-2.48-2.48v-1.42z" transform="rotate(180 26.125 39.19)"/><path class="cls-1" d="M26.13 2.45v30.89M7.85 7.13H44.4"/><circle class="cls-2" cx="26.13" cy="1.48" r=".98"/></g></svg>