<svg id="Layer_2" xmlns="http://www.w3.org/2000/svg" viewBox="0 0 49.81 46.21"><defs><style>.cls-1{fill:none;stroke:#0050b5;stroke-linecap:round;stroke-linejoin:round}</style></defs><g id="Layer_1-2"><path class="cls-1" d="M23.09 23.59L10.08 6.85H36.1L23.09 23.59zM10.08 6.85H36.1L30.49.5h-14.8l-5.61 6.35z"/><path class="cls-1" d="M23.2 23.29l2.95-7.74 1.16-3.06 2.14-5.64M23.09 23.29l-2.94-7.74-1.16-3.06-2.15-5.64M16.84 6.85l3-6.35M29.45 6.85l-3-6.35"/><path class="cls-1" transform="rotate(-172.91 44.24 37.915)" d="M40.05 30.58h8.39v14.68h-8.39z"/><path class="cls-1" d="M39.3 43.64l-18.18 1.73c-.69.07-1.38-.09-1.97-.45L1.03 33.89c-.37-.23-.57-.65-.52-1.08l.26-2.1c.09-.7.79-1.13 1.45-.9l12.89 4.49"/><path class="cls-1" d="M40.86 31.16l-9.44-1.17c-.63-.08-1.27.03-1.83.32l-5.02 2.51c-.57.28-1.21.39-1.83.32l-6.58-.82a.794.794 0 0 0-.88.68l-.34 2.75c-.05.37.17.71.52.84l7.53 2.69c.63.23 1.32.25 1.97.06l6.68-1.93M43.72 42.08"/></g></svg>