<svg id="Layer_2" xmlns="http://www.w3.org/2000/svg" viewBox="0 0 44.74 42.67"><defs><style>.cls-1{fill:none;stroke:#0050b5;stroke-linecap:round;stroke-linejoin:round}</style></defs><g id="Layer_1-2"><path class="cls-1" d="M33.39 13.28c.04.09.07.17.1.26M33.28 16.4a3.67 3.67 0 0 1-6.88-1.02c-.36-2 .96-3.91 2.96-4.27.65-.12 1.3-.06 1.88.15M29.99 6.73V.5M8.75 10.06h2.02M35.66 9.08l2.35-2.35M38.01 14.75h6.23M35.66 20.41l2.35 2.35M29.99 22.76V29M29.99 33.03v3.12M24.32 20.41l-2.34 2.35M21.98 14.75h-6.24M24.32 9.08l-2.34-2.35M13.23 27.48v-3.13M16.08 28.66l1.18-1.18M17.26 31.51h3.13M16.08 34.36l1.18 1.18M13.23 35.54v.61M13.23 39.04v3.13M10.38 34.36L9.2 35.54M9.2 31.51H6.06M10.38 28.66L9.2 27.48M.5 10.06h2.03M5.63 13.16v2.03M5.63 4.91v2.03"/></g></svg>