<svg id="Layer_2" xmlns="http://www.w3.org/2000/svg" viewBox="0 0 76.02 42.24"><defs><style>.cls-1{fill:none;stroke:#0050b5;stroke-linecap:round;stroke-linejoin:round}</style></defs><g id="Layer_1-2"><circle class="cls-1" cx="14.3" cy="9.89" r="7.54"/><path class="cls-1" d="M42.52 33.06h33V.5H28.24v14.53"/><path class="cls-1" d="M37.15 23.56a8.7 8.7 0 1 1 6.02 2.42c-.52 0-1.03-.05-1.52-.13"/><path class="cls-1" d="M51.88 17.7h-9.09l2.19-8.55M63.39 9.35h6.46v13.3h-6.46zM41.17 27.57L36.6 23l-4.83 4.83-4.78-4.87c-1.07-1.31-2.43-1.85-4.03-1.85H5.63C2.8 21.11.5 23.41.5 26.24v15.49h27.59V33.3l3.67 3.67 9.41-9.41z"/><path class="cls-1" d="M56.93 15.63h6.46v7.02h-6.46zM42.24 25.19c.88-.88.88-2.31 0-3.19-.88-.88-2.31-.88-3.19 0l-1.72 1.72 3.17 3.17 1.74-1.71zM10.5 21.11l4.1 4.1 4.1-4.1h-8.2zM4.11 21.74l3.44 5.13 2.87-5.77M25.21 21.87l-3.51 5.01-2.87-5.77M16.09 24.4l2.31 8.54-2.35 8.41M13.11 24.4l-2.31 8.54 2.35 8.41"/></g></svg>