<svg id="Layer_2" xmlns="http://www.w3.org/2000/svg" viewBox="0 0 70.22 53.32"><defs><style>.cls-1{stroke-linecap:round}.cls-1,.cls-2{fill:none;stroke:#0050b5;stroke-linejoin:round}.cls-3{fill:#0050b5}</style></defs><g id="Layer_1-2"><path class="cls-1" d="M3.79 39.4V4.31C3.79 2.21 5.5.5 7.6.5h55.01c2.1 0 3.81 1.71 3.81 3.81l-.23 35.12"/><path class="cls-1" d="M11.03 7.27H59.2v29.08H11.03z"/><path class="cls-2" d="M42.01 44.76a3.128 3.128 0 0 1-3.13 3.1h-7.53c-1.72 0-3.11-1.39-3.13-3.1H.5v2.9a5.16 5.16 0 0 0 5.16 5.16h58.9a5.16 5.16 0 0 0 5.16-5.16v-2.9H42.01z"/><path class="cls-1" d="M23.82 13.55v14.21h2.96v4.74l8.25-4.74h11.36V13.55H23.82z"/><circle class="cls-3" cx="29.24" cy="20.78" r="1.2"/><circle class="cls-3" cx="35.11" cy="20.78" r="1.2"/><circle class="cls-3" cx="40.98" cy="20.78" r="1.2"/></g></svg>