<svg id="Layer_2" xmlns="http://www.w3.org/2000/svg" viewBox="0 0 54.36 69.21"><defs><style>.cls-1{fill:none;stroke:#0050b5;stroke-linecap:round;stroke-linejoin:round}</style></defs><g id="Layer_1-2"><path class="cls-1" d="M51.5 54.63v14.08H2.72V54.63"/><path class="cls-1" d="M38.12 56.42l-10.94 1.49-10.95-1.5M11 55.7L.5 54.26V34.77h53.36v19.49L43.32 55.7"/><path class="cls-1" d="M46.88 44.72l-19.7 2.7-19.71-2.7v-9.95h39.41v9.95zM11.11 51.65h5.05v8.06h-5.05zM38.2 51.65h5.05v8.06H38.2zM16.16 27.53H38.2v7.23H16.16z"/><path class="cls-1" d="M32.75 27.53h1.8c.68 0 1.24.56 1.24 1.24v3.52h-4.27v-3.52c0-.68.56-1.24 1.24-1.24z" transform="rotate(180 33.65 29.915)"/><path class="cls-1" d="M28.48 27.53h1.8c.68 0 1.24.56 1.24 1.24v4.07h-4.27v-4.07c0-.68.56-1.24 1.24-1.24z" transform="rotate(180 29.375 30.185)"/><path class="cls-1" d="M24.2 27.53H26c.68 0 1.24.56 1.24 1.24v3.52h-4.27v-3.52c0-.68.56-1.24 1.24-1.24z" transform="rotate(180 25.1 29.915)"/><path class="cls-1" d="M19.93 27.53h1.8c.68 0 1.24.56 1.24 1.24v3.52h-3.31a.97.97 0 0 1-.97-.97v-2.55c0-.68.56-1.24 1.24-1.24z" transform="rotate(180 20.825 29.915)"/><path class="cls-1" d="M33.29 8.02l.29 4.32c.05.68.35 1.31.84 1.77l3.98 3.74c1.27 1.2 1.53 3.13.6 4.61l-3.22 5.17H27.9c-.98 0-1.77-.79-1.77-1.77v-.93c0-.98.79-1.77 1.77-1.77h4.51M28.52 20.09c-.95-.9-1.78-1.92-2-2.88M18.69 24.06v-5.74c0-1.52.51-2.99 1.45-4.18l.2-.25c.32-.4.51-.89.57-1.4l.45-4.47M19.48.5h15.77v7.52H19.48z"/></g></svg>