<svg id="Layer_2" xmlns="http://www.w3.org/2000/svg" viewBox="0 0 42.94 37.66"><defs><style>.cls-1{fill:none;stroke:#0050b5;stroke-linecap:round;stroke-linejoin:round}</style></defs><g id="Layer_1-2"><path class="cls-1" d="M1.07 15.77c-.19-.61-.34-1.25-.43-1.9-.45-3.23.13-6.24 1.97-8.96C5.93-.03 13.45-1.37 18.06 3.75c1.68 1.69 1.96 3.31 3.39 3.3.85 0 1.75-1.61 3.43-3.3C29.5-1.37 37.02-.03 40.34 4.9c1.84 2.73 2.41 5.74 1.97 8.96-.09.66-.24 1.29-.43 1.9M36.76 23.61c-1.44 1.53-2.98 2.95-4.57 4.33-3.46 3.02-10.58 9.13-10.7 9.22-.16-.1-7.28-6.21-10.74-9.22-1.53-1.34-3.03-2.71-4.43-4.18"/><path class="cls-1" d="M3.56 19.54h7.25l3.15-9.37 5.96 19.02 3.2-9.51h4.27l3.15-9.37 3.47 9.44h5.38"/></g></svg>