<svg id="Layer_2" xmlns="http://www.w3.org/2000/svg" viewBox="0 0 51.79 49.46"><defs><style>.cls-1{fill:none;stroke:#0050b5;stroke-linecap:round;stroke-linejoin:round}</style></defs><g id="Layer_1-2"><path class="cls-1" d="M32.36 9.66H11.8v39.3h30.02V19.43M37.82 18.62H11.8M17.84 25.41h17.95M25.3 33.74h10.49M17.84 33.74h3.66M17.84 42.08h17.95M26.81 6.88v5.57M18.48 6.88v5.57"/><circle class="cls-1" cx="41.82" cy="9.97" r="9.47"/><path class="cls-1" d="M41.86 6.88v6.01M44.83 9.84h-6.01M5.86 13.54v-1.9c0-1.09-.88-1.98-1.98-1.98h-1.4c-1.09 0-1.98.88-1.98 1.98v31.94l2.54 5.28c.06.12.23.12.28 0l2.54-5.28V13.54zM3.86 47.73zM.5 42.82zM5.86 14.88z"/></g></svg>