<svg id="Layer_2" xmlns="http://www.w3.org/2000/svg" viewBox="0 0 39.97 39.97"><defs><style>.cls-1{fill:none;stroke:#0050b5;stroke-linecap:round;stroke-linejoin:round;stroke-width:.75px}</style></defs><path class="cls-1" d="M.38.38V39.6H39.6V.38H.38zm12.34 31.59H6.15V14.45h6.56v17.52zM9.44 13.15c-2.04 0-3.58-1.41-3.58-3.32S7.4 6.48 9.44 6.48s3.55 1.41 3.55 3.35-1.54 3.32-3.55 3.32zm24.68 18.82h-6.6V21.92c0-1.78-.64-2.68-2.21-2.68s-2.61.97-2.61 3.05v9.68h-6.6V14.45h6.6v2.81c.97-1.84 2.85-3.28 5.79-3.28 3.32 0 5.63 2.11 5.63 6.46v11.52z" id="Layer_1-2"/></svg>