<svg id="Layer_2" xmlns="http://www.w3.org/2000/svg" viewBox="0 0 52.9 43.87"><defs><style>.cls-1{fill:none;stroke:#0050b5;stroke-linecap:round;stroke-linejoin:round}</style></defs><g id="Layer_1-2"><path class="cls-1" d="M26.45 7.68C16.4-2.38 4.67 1.07 4.67 1.07v29.02c15.51 0 21.78 7.92 21.78 7.92s6.27-7.92 21.78-7.92V1.07S36.5-2.38 26.45 7.67z"/><path class="cls-1" d="M4.67 3.57C2.09 3.71.5 4.14.5 4.14V35.6c14.52-1.57 21.53 4.83 24.49 7.24.85.69 2.06.69 2.91 0 2.97-2.41 10.56-8.81 24.49-7.24V4.14s-1.6-.43-4.17-.57M26.45 7.68v15.67M26.45 31.18v5.7"/></g></svg>