<svg id="Layer_2" xmlns="http://www.w3.org/2000/svg" viewBox="0 0 36.93 36.93"><defs><style>.cls-1{fill:none;stroke:#0050b5;stroke-linecap:round;stroke-linejoin:round}</style></defs><g id="Layer_1-2"><path class="cls-1" d="M13 16.42c-.97.98-1.23 2.37-.59 3.09.64.72 1.95.51 2.92-.47s1.23-2.37.59-3.09c-.64-.72-.38-2.11.59-3.09s2.28-1.2 2.92-.47.38 2.11-.59 3.09M12.41 19.51l-1.76 1.78M21.19 10.6l-1.76 1.78"/><ellipse class="cls-1" cx="15.93" cy="15.93" rx="19.32" ry="10.13" transform="rotate(-45 15.93 15.932)"/><path class="cls-1" d="M5.72 26.14c-2.65-2.65-.22-9.36 5.42-15 2.52-2.52 5.26-4.4 7.76-5.47M22.18 4.72c1.66-.21 3.05.1 3.96 1.01 2.65 2.65.22 9.36-5.42 15-4.1 4.1-8.77 6.5-12.03 6.49M34.66 7.33c3.96 3.96 1.05 13.28-6.5 20.83-7.55 7.55-16.87 10.46-20.83 6.5M29.97 2.64L35 7.67M2.02 29.34l5.02 5.03M10.56 31.32l4.7 4.7M15.72 29.57l4.54 4.54M19.75 26.69l4.7 4.7M23.61 23.63l4.54 4.55M26.66 19.78l4.7 4.7M29.54 15.74l4.54 4.54M31.25 10.69l4.7 4.71"/></g></svg>