<svg id="Layer_2" xmlns="http://www.w3.org/2000/svg" viewBox="0 0 61.85 39.46"><defs><style>.cls-1{fill:none;stroke:#0050b5;stroke-linecap:round;stroke-linejoin:round}</style></defs><g id="Layer_1-2"><path class="cls-1" d="M46.37 7.26c7.57 5.31 11.34 14.42 11.34 24.76M37.2 3.09a26.8 26.8 0 0 1 6.98 2.78M17.73 5.84c2.15-1.22 4.48-2.15 6.92-2.75M4.15 32.02c0-10.4 3.82-19.55 11.46-24.85M26.45 15.56L24.77.5h12.32l-1.68 15.06a4.505 4.505 0 0 1-4.48 4.01 4.51 4.51 0 0 1-4.48-4.01z"/><rect class="cls-1" x=".5" y="32.46" width="60.85" height="6.5" rx="3.25" ry="3.25"/><rect class="cls-1" x="43.4" y="5.4" width="1.98" height="15.13" rx=".99" ry=".99" transform="rotate(8.21 44.42 12.988)"/><rect class="cls-1" x="16.54" y="5.4" width="1.98" height="15.13" rx=".99" ry=".99" transform="rotate(171.79 17.534 12.968)"/><path class="cls-1" d="M17.59 24.98h26.65v7.49H17.59z"/></g></svg>