<svg id="Layer_2" xmlns="http://www.w3.org/2000/svg" viewBox="0 0 48.95 48.95"><defs><style>.cls-1{fill:none;stroke:#0050b5;stroke-linecap:round;stroke-linejoin:round}</style></defs><g id="Layer_1-2"><path class="cls-1" d="M31.06 23.11c2.78 5.07 1.9 11.52-2.24 15.66-2.49 2.49-5.8 3.86-9.32 3.86s-6.83-1.37-9.32-3.86c-2.49-2.49-3.86-5.8-3.86-9.32s1.37-6.83 3.86-9.32c4.11-4.11 10.52-5 15.57-2.28M29.03 13C21.7 8.76 12.16 9.9 6.06 16.01c-7.41 7.41-7.41 19.47 0 26.89 3.71 3.71 8.57 5.56 13.44 5.56 4.87 0 9.74-1.85 13.44-5.56 6.08-6.08 7.24-15.57 3.06-22.88M21.85 22.5a7.355 7.355 0 0 0-7.55 1.76c-2.87 2.87-2.87 7.53 0 10.39a7.362 7.362 0 0 0 10.4 0 7.374 7.374 0 0 0 1.75-7.6"/><path class="cls-1" d="M19.5 29.45l13.26-13.26 7.79.24 7.9-7.9-8.33.31.3-8.34-7.9 7.9.24 7.79"/></g></svg>