<svg id="Layer_2" xmlns="http://www.w3.org/2000/svg" viewBox="0 0 36.68 44.94"><defs><style>.cls-1,.cls-2{fill:none;stroke:#0050b5;stroke-linecap:round}.cls-1{stroke-linejoin:round}.cls-2{stroke-miterlimit:10}</style></defs><g id="Layer_1-2"><path class="cls-1" d="M36.17 15.44C36.17 6.76 29.23.5 20.55.5 10.15.5 3.94 6.73 3.94 17.13L.6 26.76c-.37.91.3 1.91 1.29 1.91h3.46l1.13 7.37a2.43 2.43 0 0 0 2.4 2.06h5.02l.64 6.35h15.83l-.84-3.86c-.79-3.63-.04-7.49 2.27-10.4l.05-.06c4.74-5.88 4.32-14.68 4.32-14.68zM16.28 30.91h7.76M18.56 33.73h3.2"/><path class="cls-1" d="M24.77 27.96h-9.22v-.32c0-2.44-.69-4.86-2.11-6.84a8.282 8.282 0 0 1-1.54-5.02c.11-4.23 3.5-7.76 7.73-8.02 4.8-.3 8.79 3.51 8.79 8.24 0 1.71-.52 3.3-1.41 4.62-1.06 1.57-1.8 3.34-2.09 5.19l-.14 2.15z"/><path class="cls-2" d="M21.49 24.57s-.16-6.3-.05-8.27c.05-1 .13-2.36 1.41-2.36.82 0 1.45.54 1.45 1.5 0 .85-.51 1.26-1.31 1.29h-.12l-2.95.03h-1.03c-1.05.05-2.86.15-2.86-1.32 0-.97.63-1.5 1.45-1.5 1.29 0 1.36 1.36 1.41 2.36.09 1.81.07 8.27.07 8.27"/></g></svg>