<svg id="Layer_2" xmlns="http://www.w3.org/2000/svg" viewBox="0 0 116.8 50.84"><defs><style>.cls-1{fill:none;stroke:#0050b5;stroke-linecap:round;stroke-linejoin:round}</style></defs><g id="Layer_1-2"><circle class="cls-1" cx="19.8" cy="11.05" r="10.55"/><path class="cls-1" d="M7.68 28.5h24.24c3.96 0 7.18 3.22 7.18 7.18v14.67H.5V35.68c0-3.96 3.22-7.18 7.18-7.18z"/><circle class="cls-1" cx="58.4" cy="11.05" r="10.55"/><path class="cls-1" d="M46.28 28.5h24.24c3.96 0 7.18 3.22 7.18 7.18v14.67H39.1V35.68c0-3.96 3.22-7.18 7.18-7.18z"/><circle class="cls-1" cx="97" cy="11.05" r="10.55"/><path class="cls-1" d="M84.88 28.5h24.24c3.96 0 7.18 3.22 7.18 7.18v14.67H77.7V35.68c0-3.96 3.22-7.18 7.18-7.18zM54.3 28.68l4.1 4.1 4.1-4.1h-8.2z"/><path class="cls-1" d="M47.96 29.6l3.58 4.85 4.25-5.77-7.58.12c-.35 0-.51.46-.26.8zM68.86 29.6l-3.58 4.85-4.25-5.77 7.58.12c.35 0 .51.46.26.8zM59.89 31.75l2.31 12.86-2.35 5.73M56.91 31.75L54.6 44.61l2.35 5.73M97.91 50.22l2.98-21.54M106.8 28.68l2.33 7.17h-5.15l.85 5.77-6.92 8.6M96.69 50.22l-2.98-21.54M87.8 28.68l-2.33 7.17h5.15l-.85 5.77 6.92 8.6M30.23 28.68c0 3.19-4.67 5.77-10.43 5.77S9.37 31.87 9.37 28.68"/></g></svg>