<svg id="Layer_2" xmlns="http://www.w3.org/2000/svg" viewBox="0 0 61.26 46.55"><defs><style>.cls-1{stroke-linecap:round}.cls-1,.cls-2{fill:none;stroke:#0050b5;stroke-linejoin:round}</style></defs><g id="Layer_1-2"><path class="cls-1" d="M3.37 34.36V3.82C3.37 1.99 4.85.5 6.69.5h47.88c1.83 0 3.32 1.48 3.32 3.32l-.2 30.58"/><path class="cls-1" d="M9.66 6.39h41.93V31.7H9.66z"/><path class="cls-2" d="M36.63 39.03a2.727 2.727 0 0 1-2.73 2.7h-6.56c-1.5 0-2.71-1.21-2.73-2.7H.5v2.53a4.49 4.49 0 0 0 4.49 4.49h51.27a4.49 4.49 0 0 0 4.49-4.49v-2.53H36.63z"/><path class="cls-1" d="M34.94 12.26h7.97v13.57h-7.97zM26.97 17.16h7.97v8.68h-7.97zM19 20.97h7.97v4.86H19z"/></g></svg>