<svg id="Layer_2" xmlns="http://www.w3.org/2000/svg" viewBox="0 0 68.82 43.19"><defs><style>.cls-1{fill:none;stroke:#0050b5;stroke-linecap:round;stroke-linejoin:round}</style></defs><g id="Layer_1-2"><path class="cls-1" d="M66.2 9.06l1.48-1.48c.85-.85.85-2.23 0-3.08l-1.09-1.09a2.18 2.18 0 0 0-3.08 0l-1.48 1.48-23.42 23.42-2.14 6.1c-.05.14.08.27.22.22l6.1-2.14.35-.35L66.21 9.07zM37.99 34.15l-1.02-1.02 1.02 1.02zM39.2 27.71l4.16 4.16-4.16-4.16zM66.2 9.06l-4.17-4.17 4.17 4.17zM8.86 33.82s7.23-3.82 10.75.25c2.96 3.41 7.72-1.2 13.39-1.07 2.17.05 3.28 1.45 3.28 1.45"/><path class="cls-1" d="M52.92 30.11v12.58H.5V.5h52.42v5.84M8.86 10.46h31.93M8.86 16.46h22.16M8.86 22.46h13.96"/></g></svg>