<svg id="Layer_2" xmlns="http://www.w3.org/2000/svg" viewBox="0 0 36.15 48.41"><defs><style>.cls-1{fill:none;stroke:#0050b5;stroke-linecap:round;stroke-linejoin:round}.cls-2{fill:#0050b5}</style></defs><g id="Layer_1-2"><path class="cls-1" d="M27.61 43.23l-.07 1.93a2.774 2.774 0 0 1-2.78 2.75H3.28A2.78 2.78 0 0 1 .5 45.13V3.28C.5 1.74 1.74.5 3.28.5h21.65a2.78 2.78 0 0 1 2.78 2.78v19.65l-.06 2.56M18.48 4.32H9.72M27.7 8.11H.5"/><circle class="cls-2" cx="14.1" cy="43.23" r="1.85"/><path class="cls-1" d="M17.81 38.68H.5M33.6 26.2c-1.09.02-1.97.91-1.97 2.01v-1.62c0-1.13-.92-2.08-2.05-2.06s-1.97.91-1.97 2.01v-1.86c0-1.13-.92-2.08-2.05-2.06s-1.97.91-1.97 2.01v-5.9c0-1.32-1.26-2.34-2.64-1.91-.83.25-1.38 1.05-1.38 1.91v13.89l-.05.07-1.66-2.25c-1.21-1.63-3.36-2.44-5.62-.47l4.2 6.15 2.94 4.42a4.96 4.96 0 0 0 4.41 2.69h4.57a7.29 7.29 0 0 0 7.29-7.29v-7.68c0-1.13-.92-2.08-2.05-2.06zM16.04 18.72a5.565 5.565 0 0 1 7.61-5.18"/></g></svg>