<svg id="Layer_2" xmlns="http://www.w3.org/2000/svg" viewBox="0 0 77.23 48.61"><defs><style>.cls-1{stroke-linejoin:round}.cls-1,.cls-2,.cls-3{fill:none;stroke:#0050b5}.cls-4{fill:#0050b5}.cls-2{stroke-linecap:round}.cls-2,.cls-3{stroke-miterlimit:10}</style></defs><g id="Layer_1-2"><path class="cls-3" d="M10.04 10.81l-.02-6.9c0-1.8 1.45-3.26 3.25-3.26L73.39.5c1.8 0 3.26 1.45 3.26 3.25l.08 31.31c0 1.8-1.45 3.26-3.25 3.26l-7 .02"/><rect class="cls-3" x=".5" y="10.3" width="66.63" height="37.82" rx="3.25" ry="3.25"/><path class="cls-2" d="M17.52 16.66h11.33M17.52 23.41H37.4M5.96 30.5h54.98"/><path class="cls-1" d="M5.96 16.66h6.75v6.75H5.96z"/><path class="cls-4" d="M26.49 37.88v1.68c0 .33.11.44.44.44h.6c.23 0 .34-.1.37-.33.04-.27.13-.36.4-.37h.63c.26 0 .38.11.38.37.01.7 0 1.4 0 2.1 0 .23-.12.34-.35.36-.25.01-.49.01-.74 0-.21-.01-.32-.14-.33-.35v-.65c0-.29-.12-.41-.41-.41h-1.99c-.32 0-.43-.11-.43-.43V36.2c0-.32.11-.42.43-.43h.49c.38 0 .48.09.48.47v1.65zM7.46 37.56v1.34c0 .28.11.39.39.4h.63c.27 0 .39.12.39.38v2.08c0 .24-.11.36-.35.37-.71.01-1.42 0-2.12 0-.22 0-.34-.14-.34-.36v-2.12c0-.21.14-.31.34-.35.29-.05.37-.14.37-.43v-1.63c0-.28-.09-.38-.38-.42-.22-.03-.31-.15-.33-.35v-.02c-.03-.6.05-.69.65-.69h.34c.31 0 .43.12.43.43v1.36zM20.73 42.13h-1.32c-.29 0-.44-.13-.44-.36 0-.22.15-.34.43-.34h1.25c.33 0 .44-.11.44-.44v-1.23c0-.34-.11-.45-.46-.45h-1.32a.35.35 0 0 1-.29-.54c.08-.13.21-.15.35-.15h1.27c.33 0 .44-.11.44-.45v-1.23c0-.34-.12-.45-.46-.45h-1.27c-.24 0-.38-.12-.39-.34 0-.21.13-.36.36-.37h2.1c.26 0 .36.13.36.43v2.26c0 .37.05.43.42.5.18.03.28.14.28.32v2.55c0 .2-.14.31-.39.31H20.7zM32.61 37.53v-1.36c0-.27.12-.4.39-.4h2.75c.25 0 .39.14.39.36 0 .21-.14.34-.4.34h-1.97c-.35 0-.45.11-.45.46v1.25c0 .3.11.42.42.42h1.9c.41 0 .5.09.5.49v2.59c0 .33-.11.45-.44.45h-2.68c-.27 0-.41-.13-.41-.36 0-.22.14-.34.4-.34h1.97c.35 0 .45-.11.45-.45v-1.23c0-.33-.11-.44-.44-.44h-1.86c-.45 0-.52-.08-.52-.51v-1.25zM12.86 40.34V39c0-.3.11-.4.41-.41h1.27c.32 0 .43-.12.44-.43v-1.27c0-.3-.12-.42-.42-.42h-1.3c-.26 0-.39-.12-.4-.34 0-.22.13-.36.39-.36h2.03c.27 0 .4.12.4.4v2.75c0 .26-.12.38-.39.38h-1.27c-.35 0-.46.11-.46.45V41c0 .3.12.42.42.42h1.3c.26 0 .4.12.41.34 0 .21-.14.36-.39.36h-2.03c-.3 0-.4-.12-.4-.42v-1.36zM54.75 38.37v-.83c0-.21.1-.31.31-.32h1.12c.2 0 .3.1.3.31v1.73c0 .18-.1.28-.29.28h-1.18c-.18 0-.27-.11-.27-.3v-.88zM41.2 39.52v-1.38c0-.25.09-.34.34-.34H42c.27 0 .35.08.35.35V40.96c0 .23-.09.32-.33.33h-.5c-.24 0-.33-.1-.33-.34v-1.43zM43.53 37.8v-.55c0-.21.1-.31.3-.31h1.14c.2 0 .29.1.3.3v1.16c0 .17-.09.27-.25.28-.41 0-.82.01-1.23 0-.17 0-.25-.12-.25-.28v-.59zM45.27 41.3v.55c0 .21-.09.31-.3.31h-1.16c-.17 0-.28-.1-.28-.27v-1.2c0-.17.11-.26.27-.26H45c.17 0 .26.1.27.28v.59zM50.88 38.11v.81c0 .24-.09.33-.33.34h-.53c-.19 0-.3-.1-.3-.29v-1.74c0-.18.11-.28.29-.29h.53c.24 0 .34.1.34.33v.84zM47.98 41.02v.79c0 .26-.09.35-.36.35h-.51c-.18 0-.29-.1-.29-.28v-1.76c0-.18.11-.27.28-.28h.61c.19 0 .28.12.28.34v.84zM58.03 39.54v-.83c0-.22.09-.32.31-.33h.55c.2 0 .29.08.3.28v1.78c0 .18-.13.26-.29.26h-.57c-.19 0-.29-.11-.29-.31v-.86zM60.94 39.56v.83c0 .22-.1.32-.31.33h-.55c-.19 0-.3-.1-.3-.3v-1.73c0-.19.1-.29.3-.3h.53c.24 0 .33.1.33.34v.83zM53.58 39.54v-1.38c0-.24.09-.36.29-.36.2 0 .29.11.29.36v2.77c0 .23-.11.35-.3.35-.18 0-.28-.13-.28-.36v-1.4zM53 39.56v1.4c0 .22-.11.34-.3.34-.18 0-.28-.12-.28-.34v-2.83c0-.22.1-.32.29-.32.19 0 .28.1.29.32v1.43zM49.13 39.54v.99c0 .21-.11.32-.29.32-.17 0-.28-.11-.28-.31v-2c0-.2.11-.3.29-.3s.28.1.28.31v.99zM61.52 39.54v-.85c0-.2.09-.3.27-.31.18-.01.3.08.31.28v1.76c0 .18-.13.28-.3.28-.16 0-.27-.11-.27-.29v-.88z"/></g></svg>