<svg id="Layer_2" xmlns="http://www.w3.org/2000/svg" viewBox="0 0 45.03 47.86"><defs><style>.cls-1{fill:none;stroke:#0050b5;stroke-linecap:round;stroke-linejoin:round}</style></defs><g id="Layer_1-2"><path class="cls-1" d="M40.66 12.86c2.44 3.55 3.87 7.85 3.87 12.48 0 12.16-9.85 22.02-22.01 22.02S.5 37.5.5 25.34C.5 14.57 8.24 5.6 18.46 3.69"/><path class="cls-1" d="M39.23 6.95L23.67 22.52V.5c6.08 0 11.58 2.47 15.56 6.45zM23.93 8.32l3.57-3.57M23.67 15.5l8.58-8.58M6.77 39.39l22.37-22.36M14.55 39.39L25.44 28.5M14.55 45.62l10.89-10.89M39.38 39.53l-16.2-16.2M17.41 9.57s-6.36 1.51-8.74 8.26"/></g></svg>