<svg id="Layer_2" xmlns="http://www.w3.org/2000/svg" viewBox="0 0 39.23 43.87"><defs><style>.cls-1,.cls-2{stroke:#0050b5;stroke-linecap:round;stroke-linejoin:round}.cls-1,.cls-3{fill:#0050b5}.cls-2{fill:none}</style></defs><g id="Layer_1-2"><path class="cls-2" d="M3.78 37.29h7.15V13.58H3.78v23.71zM28.3 13.58h7.15v23.71H28.3z"/><path class="cls-1" d="M19.62.5L.5 13.57h38.23L19.62.5zM.5 37.31h38.23v6.06H.5z"/><path class="cls-3" d="M11.33 13.58v23.71h16.56V13.58H11.33zm9.28 17.32v1.24c0 .55-.45 1-1 1s-1-.45-1-1v-1.27c-1.31-.22-2.41-.85-2.99-1.78a1.01 1.01 0 0 1 .31-1.38 1.01 1.01 0 0 1 1.38.31c.28.45 1.12.93 2.3.93 2.42 0 2.42-.87 2.42-1.29s0-1.29-2.42-1.29c-2.77 0-4.42-1.23-4.42-3.29 0-1.8 1.26-2.96 3.42-3.23v-1.11c0-.55.45-1 1-1s1 .45 1 1v1.14c1.16.19 2.16.72 2.79 1.49a1.002 1.002 0 1 1-1.56 1.26c-.31-.38-1.08-.83-2.23-.83s-2.42.22-2.42 1.29 1.31 1.29 2.42 1.29c3.84 0 4.42 2.06 4.42 3.29 0 1.11-.48 2.9-3.42 3.23z"/></g></svg>