<svg id="Layer_2" xmlns="http://www.w3.org/2000/svg" viewBox="0 0 70.25 57.66"><defs><style>.cls-1{fill:none;stroke:#0050b5;stroke-linecap:round;stroke-linejoin:round}</style></defs><g id="Layer_1-2"><path class="cls-1" d="M17.99 26.29h34.27v5.12H17.99zM25.49 52.04h19.27v5.12H25.49zM35.12 52.04V31.41M.5 23.33v18.25h13.3M13.8 41.58v15.58H.5"/><circle class="cls-1" cx="9.21" cy="11.39" r="4.78"/><circle class="cls-1" cx="35.13" cy="5.04" r="4.54"/><path class="cls-1" d="M29.91 12.56h10.44c1.71 0 3.09 1.39 3.09 3.09v6.32H26.81v-6.32c0-1.71 1.39-3.09 3.09-3.09zM13.8 36.16V20.95c0-1-.81-1.81-1.81-1.81h-5.8c-1 0-1.81.81-1.81 1.81v20.63h9.42v10.46h5.42V36.16H13.8zM69.75 23.33v18.25h-13.3M56.45 41.58v15.58h13.3"/><circle class="cls-1" cx="61.04" cy="11.39" r="4.78"/><path class="cls-1" d="M56.45 36.16V20.95c0-1 .81-1.81 1.81-1.81h5.81c1 0 1.81.81 1.81 1.81v20.63h-9.42v10.46h-5.42V36.16h5.42z"/></g></svg>