<svg id="Layer_2" xmlns="http://www.w3.org/2000/svg" viewBox="0 0 41.54 45.83"><defs><style>.cls-1{fill:none;stroke:#0050b5;stroke-linecap:round;stroke-linejoin:round}</style></defs><g id="Layer_1-2"><path class="cls-1" d="M23.14 38.07s-3.92.87-4.84-.33c-1.55-2.03-3.97 1.6-6.05.21"/><path class="cls-1" d="M28.21 35.35v9.98H.5V7.01h6.66M21.69 7.01h6.52v22.85M10.24.5h8.22v3.42h-8.22z"/><path class="cls-1" d="M4.59 22.55l1.21 1.2 2.45-2.45M4.59 14.97l1.21 1.21 2.45-2.45M4.59 29.69L5.8 30.9l2.45-2.45M22.49 22.46H12.28M22.49 14.96H12.28M19.05 29.97h-6.77M4.59 36.36l2.96 2.96M7.57 36.36L4.6 39.32M39.84 23.63l.84-.84c.48-.48.48-1.26 0-1.74l-.62-.62a1.23 1.23 0 0 0-1.74 0l-.84.84-13.23 13.24-1.21 3.44c-.03.08.05.15.12.13l3.44-1.21.2-.2 13.04-13.04zM23.9 37.81l-.58-.58.58.58zM24.58 34.17l2.35 2.35-2.35-2.35zM39.84 23.63l-2.36-2.36 2.36 2.36zM7.25 3.92h14.21v4.51H7.25z"/><path class="cls-1" d="M24.4 35.96h1.5v1.12h-1.5z"/></g></svg>