<svg id="Layer_2" xmlns="http://www.w3.org/2000/svg" viewBox="0 0 48.33 42.43"><defs><style>.cls-1{fill:none;stroke:#0050b5;stroke-linecap:round;stroke-linejoin:round}.cls-2{fill:#0050b5}</style></defs><g id="Layer_1-2"><path class="cls-1" d="M44.78 32.78H3.38A2.88 2.88 0 0 1 .5 29.9V3.38A2.88 2.88 0 0 1 3.38.5h41.57a2.88 2.88 0 0 1 2.88 2.88l-.18 26.55a2.874 2.874 0 0 1-2.88 2.85z"/><circle class="cls-2" cx="24.17" cy="28.78" r="1.73"/><path class="cls-1" d="M47.64 24.6h-46M30.85 41.93H17.43c-.52 0-.93-.42-.93-.93l2.62-7.29c0-.52.42-.93.93-.93h8.23c.52 0 .93.42.93.93l2.57 7.3c0 .51-.42.93-.93.93zM7.16 19.06l6.87-6.87 4.81 4.8 6.09-6.09 5.82 5.83 9.12-9.12h-4.99M39.87 12.45V7.81"/></g></svg>