<svg id="Layer_2" xmlns="http://www.w3.org/2000/svg" viewBox="0 0 65.88 57.26"><defs><style>.cls-1{fill:none;stroke:#0050b5;stroke-linecap:round;stroke-linejoin:round}</style></defs><g id="Layer_1-2"><circle class="cls-1" cx="32.97" cy="38.16" r="4.99"/><path class="cls-1" d="M23.84 56.76v-6.94c0-1.88 1.52-3.4 3.4-3.4h11.47c1.88 0 3.4 1.52 3.4 3.4v6.94"/><circle class="cls-1" cx="9.63" cy="32.35" r="4.99"/><path class="cls-1" d="M.5 50.95v-6.94c0-1.88 1.52-3.4 3.4-3.4h11.47c1.88 0 3.4 1.52 3.4 3.4v6.94"/><circle class="cls-1" cx="56.24" cy="32.62" r="4.99"/><path class="cls-1" d="M47.11 51.22v-6.94c0-1.88 1.52-3.4 3.4-3.4h11.47c1.88 0 3.4 1.52 3.4 3.4v6.94"/><circle class="cls-1" cx="32.97" cy="11.3" r="4.99"/><path class="cls-1" d="M23.84 29.9v-6.94c0-1.88 1.52-3.4 3.4-3.4h11.47c1.88 0 3.4 1.52 3.4 3.4v6.94"/><circle class="cls-1" cx="9.63" cy="5.49" r="4.99"/><path class="cls-1" d="M.5 24.09v-6.94c0-1.88 1.52-3.4 3.4-3.4h11.47c1.88 0 3.4 1.52 3.4 3.4v6.94"/><circle class="cls-1" cx="56.24" cy="5.76" r="4.99"/><path class="cls-1" d="M47.11 24.36v-6.94c0-1.88 1.52-3.4 3.4-3.4h11.47c1.88 0 3.4 1.52 3.4 3.4v6.94"/></g></svg>