<svg id="Layer_2" xmlns="http://www.w3.org/2000/svg" viewBox="0 0 63.76 49.04"><defs><style>.cls-1{fill:none;stroke:#0050b5;stroke-linecap:round;stroke-linejoin:round}.cls-2{fill:#0050b5}</style></defs><g id="Layer_1-2"><path class="cls-1" d="M53.5 20.96h9.76v20.69h-4.3v6.89l-12.01-6.89H30.41v-5.58"/><path class="cls-1" d="M.5.5v28.98h6.02v9.65l16.83-9.65h23.18V.5H.5z"/><path class="cls-2" d="M10.82 11.01h5.11s.04.02.04.04v.8s-.02.04-.04.04H11.9s-.04.02-.04.04v3.06s.02.04.04.04h3.12s.04.02.04.04v.8s-.02.04-.04.04H11.9s-.04.02-.04.04v3.89s-.02.04-.04.04h-1s-.04-.02-.04-.04v-8.78s.02-.04.04-.04zM20.81 11.01h1.36s.03.01.04.03l2.98 8.81s-.01.06-.04.06h-.98s-.03-.01-.04-.03l-.85-2.5s-.02-.03-.04-.03h-3.61s-.03.01-.04.03l-.84 2.5s-.9.03-1.11.03c-.02 0-.04-.02-.03-.05l3.16-8.82.04-.03zm-.85 5.47h2.97s.05-.03.04-.06l-1.48-4.4s-.07-.04-.08 0l-1.48 4.4s.01.06.04.06zM33.82 19.64s-.03-.02-.05 0c-.54.25-1.17.38-1.84.38-2.62 0-4.4-2.01-4.4-4.5v-.1c0-2.52 1.77-4.52 4.38-4.52s4.34 1.99 4.34 4.49v.1c0 1.49-.61 2.79-1.63 3.62-.02.01-.02.04 0 .06l1.06 1.18s.01.04 0 .06l-.6.58s-.05.02-.06 0l-1.19-1.34zm-.67-.74l-.97-1.09s-.01-.04 0-.06l.6-.58s.05-.02.06 0l1.07 1.21s.04.02.06 0c.74-.65 1.15-1.67 1.15-2.92v-.1c0-1.99-1.17-3.61-3.22-3.61s-3.26 1.52-3.26 3.63v.1c0 2.15 1.43 3.62 3.28 3.62.45 0 .86-.07 1.22-.22z"/></g></svg>