<svg id="Layer_2" xmlns="http://www.w3.org/2000/svg" viewBox="0 0 78.37 40.04"><defs><style>.cls-1,.cls-2{stroke-linejoin:round}.cls-1,.cls-2,.cls-3{stroke:#0050b5;stroke-linecap:round}.cls-1,.cls-4{fill:#0050b5}.cls-2,.cls-3{fill:none}.cls-3{stroke-miterlimit:10}</style></defs><g id="Layer_1-2"><path class="cls-2" d="M64.72 18.69c1.13.48 2.38.74 3.68.74 5.23 0 9.47-4.24 9.47-9.47S73.63.5 68.4.5c-1.15 0-2.25.2-3.27.58M68.44 6.96v6.01M71.41 9.93h-4.75M41.88 6.61H3.33C1.76 6.61.5 7.88.5 9.44V36.7c0 1.57 1.27 2.83 2.83 2.83h52.36c1.57 0 2.83-1.27 2.83-2.83V23.07"/><path class="cls-3" d="M51.74 26.89H41.13M51.74 33.12H30.53"/><path class="cls-4" d="M.5 17.09h47.82l-1.89-4.95H.5v4.95z"/><circle class="cls-2" cx="55.25" cy="9.97" r="9.47"/><path class="cls-2" d="M55.29 6.88v6.01M58.26 9.84h-6.01"/><path class="cls-1" d="M14.91 31.49v-7.97H6.93c4.4 0 7.97 3.57 7.97 7.97z"/><path class="cls-2" d="M6.41 23.35h8.63v8.63H6.41z"/></g></svg>