<svg id="Layer_2" xmlns="http://www.w3.org/2000/svg" viewBox="0 0 49.07 43.06"><defs><style>.cls-1,.cls-2{fill:none;stroke:#0050b5}.cls-1{stroke-linecap:round;stroke-linejoin:round}.cls-2{stroke-miterlimit:10}</style></defs><g id="Layer_1-2"><path class="cls-1" d="M40.92 16.16l4.51 2.63C44.14 8.48 35.34.5 24.68.5S6.1 7.7 4.17 17.26M48.57 14.63l-3.09 4.16M8.16 26.9l-4.51-2.63C4.94 34.58 13.74 42.56 24.4 42.56s18.58-7.2 20.5-16.76M.5 28.42l3.1-4.16"/><circle class="cls-2" cx="24.68" cy="21.42" r="13.07"/><path class="cls-1" d="M21.44 24.54c.52.82 1.73 1.4 3.15 1.4 1.89 0 3.42-.51 3.42-2.29s-1.53-2.29-3.42-2.29-3.42-.63-3.42-2.29 1.53-2.29 3.42-2.29c1.3 0 2.43.49 3.01 1.2M24.59 16.77v-2.05M24.59 28.12v-2.05"/></g></svg>