<svg id="Layer_2" xmlns="http://www.w3.org/2000/svg" viewBox="0 0 56.86 52.38"><defs><style>.cls-1{stroke-linecap:round}.cls-1,.cls-2{fill:none;stroke:#0050b5;stroke-linejoin:round}</style></defs><g id="Layer_1-2"><path class="cls-1" transform="rotate(-176.15 50.99 41.785)" d="M46.17 33.36h9.63v16.86h-9.63z"/><path class="cls-1" d="M45.7 48.67l-20.74 3.16c-.79.12-1.59-.02-2.29-.39L1.17 39.97c-.44-.23-.7-.7-.67-1.2l.16-2.43c.05-.8.83-1.35 1.61-1.13l15.07 4.31"/><path class="cls-1" d="M46.67 34.25l-10.9-.73a3.68 3.68 0 0 0-2.08.48l-5.59 3.21c-.63.36-1.36.53-2.08.48l-7.59-.51a.9.9 0 0 0-.96.84l-.21 3.18c-.03.42.24.81.65.93l8.81 2.59c.74.22 1.53.2 2.26-.06l7.53-2.64M44.14 11.27c.37.58 1.23.99 2.23.99 1.33 0 2.42-.36 2.42-1.62s-1.08-1.62-2.42-1.62c-1.33 0-2.42-.45-2.42-1.62s1.08-1.62 2.42-1.62c.92 0 1.72.34 2.13.85M46.36 5.77V4.32M46.36 13.8v-1.45"/><path class="cls-2" d="M45.25 27.98H5.89l-4-3.66h47.36l-4 3.66zM44.72 18.45c.19.94.28 1.92.28 2.91H6.14c0-9.41 8.7-17.04 19.43-17.04 4.6 0 8.83 1.4 12.16 3.74"/><circle class="cls-1" cx="46.36" cy="9.06" r="8.56"/><path class="cls-2" d="M23.38 4.32c0-1.36.98-2.46 2.19-2.46s2.19 1.1 2.19 2.46"/></g></svg>