<svg id="Layer_2" xmlns="http://www.w3.org/2000/svg" viewBox="0 0 81.07 59.21"><defs><style>.cls-1,.cls-2{fill:#fff;stroke:#0050b5;stroke-linecap:round;stroke-linejoin:round;stroke-width:2px}.cls-2{fill:none}</style></defs><g id="Layer_1-2"><circle class="cls-2" cx="40.53" cy="12.7" r="11.7"/><path class="cls-1" d="M37.66 15.55c.47.75 1.58 1.28 2.88 1.28 1.72 0 3.12-.47 3.12-2.1s-1.4-2.09-3.12-2.09c-1.72 0-3.12-.58-3.12-2.1s1.4-2.09 3.12-2.09c1.19 0 2.22.45 2.75 1.1M40.53 8.45V6.57M40.53 18.82v-1.88"/><path class="cls-2" d="M12.7 15.96l-5.29 4.09v8.29l3.61-.01v-4.14h3.37v4.14l3.59.01v-8.29l-5.28-4.09z"/><path class="cls-2" d="M6.23 20.92l6.47-4.96 6.46 4.97"/><circle class="cls-2" cx="12.7" cy="22.72" r="11.7"/><g><circle class="cls-2" cx="68.37" cy="22.15" r="11.7"/><path class="cls-2" d="M61.63 25.35l3.9-3.9 3.73 3.73 5.85-5.85h-3.2M75.11 22.44v-2.97"/></g><path class="cls-2" d="M47.07 41.19c-1.09.02-1.97.91-1.97 2.01v-1.62c0-1.13-.92-2.08-2.05-2.06s-1.97.91-1.97 2.01v-1.86c0-1.13-.92-2.08-2.05-2.06-1.09.02-1.97.91-1.97 2.01v-5.9c0-1.32-1.26-2.34-2.64-1.91-.83.25-1.38 1.05-1.38 1.91v13.89l-.05.07-1.66-2.25c-1.21-1.63-3.36-2.44-5.62-.47l4.2 6.15 2.94 4.42a4.96 4.96 0 0 0 4.41 2.69h4.57a7.29 7.29 0 0 0 7.29-7.29v-7.68c0-1.13-.92-2.08-2.05-2.06zM21.7 30.67l6.37 6.37M59.86 30.67l-6.37 6.37M40.78 24.85v6.85"/></g></svg>