<svg id="Layer_2" xmlns="http://www.w3.org/2000/svg" viewBox="0 0 50.9 63.18"><defs><style>.cls-1,.cls-2{fill:none;stroke:#0050b5;stroke-linecap:round}.cls-1{stroke-linejoin:round}.cls-2{stroke-miterlimit:10}</style></defs><g id="Layer_1-2"><path class="cls-1" d="M47.11 32.01V56.6H3.8V32.01M.5 56.6h49.9v6.07H.5zM36.48 23.77H50.4v8.17H35.09M15.75 31.94H.5v-8.17h14.1M21.04 31.92h8.82M23.63 35.13h3.64M30.69 28.56H20.21v-.37c0-2.77-.79-5.52-2.4-7.78a9.296 9.296 0 0 1-1.74-5.71c.13-4.81 3.98-8.82 8.78-9.11 5.46-.34 9.98 3.99 9.98 9.37 0 1.95-.59 3.75-1.61 5.25-1.21 1.79-2.05 3.79-2.38 5.9l-.16 2.44z"/><path class="cls-2" d="M26.96 24.72s-.18-7.16-.06-9.4c.06-1.14.14-2.68 1.61-2.68.93 0 1.65.61 1.65 1.71 0 .96-.58 1.44-1.49 1.46h-.14l-3.35.04h-1.17c-1.2.06-3.25.17-3.25-1.5 0-1.1.72-1.71 1.65-1.71 1.46 0 1.55 1.55 1.61 2.68.1 2.06.08 9.4.08 9.4"/><path class="cls-1" d="M18.18 41.09h14.46V56.6H18.18z"/><path class="cls-2" d="M25.41 2.35V.5M34.88 6.47l1.31-1.31M37.87 16.08h1.85M15.98 6.47l-1.31-1.31M13 16.08h-1.86"/></g></svg>