<svg id="Layer_2" xmlns="http://www.w3.org/2000/svg" viewBox="0 0 77.67 32.83"><defs><style>.cls-1{fill:none;stroke:#0050b5;stroke-linecap:round;stroke-linejoin:round}</style></defs><g id="Layer_1-2"><path class="cls-1" d="M69.25 32.33h-50.6c-1.51 0-2.52-1.23-2.26-2.74l4.65-26.35C21.31 1.73 22.75.5 24.26.5h50.61c1.51 0 2.52 1.23 2.26 2.74l-4.65 26.35c-.27 1.51-1.71 2.74-3.22 2.74zM40.41 16.51h25.34M20.03 8.95h56.09M7.4 16.51h10.31M.5 24.09h15.94"/><path class="cls-1" d="M25.44 23.72c.26.72 1.18 1.22 2.41 1.22 1.64 0 3.09-.45 3.49-1.99.41-1.55-.8-1.99-2.44-1.99s-2.82-.55-2.44-1.99c.38-1.44 1.85-1.99 3.49-1.99 1.13 0 2 .42 2.34 1.05M29.95 16.96l.47-1.78M27.35 26.83l.47-1.79M36.63 27.78c.93-1.21 2.69-3.13 4.11-4.62 1.26-1.32 2.77-1.09 2.68.51v.02c-.1 1.38.94 1.9 2.11 1.07l.15-.11c.83-.59 1.64-1.2 2.48-1.78.87-.61 1.47-.58 1.95.01.68.83 1.33 1.68 2.14 2.41.97.86 1.6.81 3.18-.02.77-.4 1.52-.85 2.3-1.22 1.81-.85 3.2-.78 4.16.27.89.98 2.11 1.2 3.87.54"/></g></svg>