<svg id="Layer_2" xmlns="http://www.w3.org/2000/svg" viewBox="0 0 51.2 51.41"><defs><style>.cls-1{fill:none;stroke:#0050b5;stroke-linecap:round;stroke-linejoin:round}</style></defs><g id="Layer_1-2"><path class="cls-1" d="M47.2 50.91c1.93 0 3.5-1.57 3.5-3.5v-29.2h-6.99M5.79 7.84h28.7M5.79 13.24h20.9M31.78 13.24h5.43M38.45 38.26H24.23M38.45 43.67h-20.9M12.46 43.67H5.79M18.47 38.26H5.79M5.79 18.21h7.3v15.08h-7.3zM31.15 18.21h7.3v15.08h-7.3zM18.47 18.21h7.3v15.08h-7.3z"/><path class="cls-1" d="M47.2 50.91c-1.93 0-3.5-1.57-3.5-3.5V.5H.5v46.4c0 2.22 1.8 4.01 4.01 4.01H47.2"/></g></svg>