<svg id="Layer_2" xmlns="http://www.w3.org/2000/svg" viewBox="0 0 73.27 60.09"><defs><style>.cls-1{fill:none;stroke:#0050b5;stroke-linecap:round;stroke-linejoin:round}</style></defs><g id="Layer_1-2"><path class="cls-1" d="M27.61 21.37h31.44v38.22H27.61zM59.05 59.59h13.72V28.37H59.05"/><path class="cls-1" d="M59.05 36.98h7.82v4.96h-7.82zM59.05 48.48h7.82v4.96h-7.82zM46.49 36.98h7.82v4.96h-7.82zM46.49 48.48h7.82v4.96h-7.82zM32.35 25.89h7.82v4.96h-7.82zM46.49 25.89h7.82v4.96h-7.82zM32.35 36.98h7.82v4.96h-7.82zM32.35 48.48h7.82v4.96h-7.82zM31.94 21.37v-5.78H54.31v5.78M41.38.5h3.9v15.09h-3.9z"/><path class="cls-1" d="M31.94 19.58v-8.21l-31.44 8v40.22h32.79"/><path class="cls-1" d="M19.38 36.98h3.91v4.96h-3.91zM19.38 48.48h3.91v4.96h-3.91zM5.24 25.89h7.82v4.96H5.24zM19.38 25.89h3.91v4.96h-3.91zM5.24 36.98h7.82v4.96H5.24zM5.24 48.48h7.82v4.96H5.24z"/></g></svg>