<svg id="Layer_2" xmlns="http://www.w3.org/2000/svg" viewBox="0 0 52.52 54.48"><defs><style>.cls-1{fill:none;stroke:#0050b5;stroke-linecap:round;stroke-linejoin:round}</style></defs><g id="Layer_1-2"><g id="_"><path class="cls-1" d="M47.71 25.3c.31 1.54.48 3.13.48 4.76M.5 30.11c0-6.05 2.25-11.59 5.97-15.81 4.36-4.94 10.74-8.06 17.85-8.07M24.32 6.24c-4.18 0-11.18 7.91-13.05 18.49M37.89 30.07c0-1.63-.14-3.23-.38-4.77"/><path class="cls-1" d="M27.61 6.46c-1.08-.15-2.18-.22-3.29-.22-7.11 0-13.49 3.13-17.85 8.06 1.98 1.16 4.38 2.21 7.07 3.02 3.24.98 6.9 1.6 10.79 1.6 1.07 0 2.13-.05 3.17-.14"/><path class="cls-1" d="M24.32 6.86v1.26l.01 10.8.01 11.16M47.84 30.06l-46.31.05"/><g><path class="cls-1" d="M37.89 30.15c-.01 13.17-8.72 23.84-13.57 23.83M48.19 30.11c0 6.05-2.25 11.59-5.97 15.81-4.36 4.94-10.74 8.06-17.85 8.07-7.14 0-13.56-3.14-17.94-8.11A23.84 23.84 0 0 1 .5 30.16M10.8 30.15c.01 13.17 8.72 23.84 13.57 23.83"/><path class="cls-1" d="M42.22 45.92c-1.98-1.16-4.38-2.21-7.07-3.02-3.24-.98-6.9-1.6-10.79-1.6-3.89 0-7.57.61-10.82 1.58-2.71.8-5.12 1.85-7.11 3 4.38 4.97 10.79 8.11 17.94 8.1 7.11 0 13.49-3.13 17.85-8.06z"/><path class="cls-1" d="M24.38 53.36l-.01-1.26-.01-10.8-.01-11.16M.85 30.16l46.31-.05"/></g></g><circle class="cls-1" cx="41.15" cy="11.37" r="10.87"/><path class="cls-1" d="M46.05 7.94h-9.77M38.02 5.92L36 7.94M38.02 9.95L36 7.94M36.28 14.81h9.77M44.28 16.82l2.02-2.01M44.28 12.79l2.02 2.02"/></g></svg>