<svg id="Layer_2" xmlns="http://www.w3.org/2000/svg" viewBox="0 0 99.33 66.79"><defs><style>.cls-1{stroke-linecap:round}.cls-1,.cls-2{fill:none;stroke:#0050b5;stroke-linejoin:round}.cls-3{fill:#0050b5}</style></defs><g id="Layer_1-2"><path class="cls-1" d="M90.6 23.12l-.19 28.95a3.205 3.205 0 0 1-3.2 3.18H74.9M59.19 13.97V3.71C59.19 1.94 60.62.5 62.4.5h25.01c1.77 0 3.21 1.43 3.21 3.21v1.87M79.95 4.92H69.84M83.61 9.28H59.19"/><circle class="cls-3" cx="74.9" cy="49.84" r="1.73"/><path class="cls-1" d="M89.89 44.58H66.42M71.84 29.91c.5.8 1.69 1.36 3.06 1.36 1.84 0 3.32-.5 3.32-2.23s-1.49-2.23-3.32-2.23c-1.84 0-3.32-.61-3.32-2.23s1.49-2.23 3.32-2.23c1.26 0 2.36.47 2.92 1.17M74.9 22.36v-2M74.9 33.4v-2M32.65 44.65H23.9a.46.46 0 0 1-.47-.45v-4.36c0-.25.21-.45.47-.45h8.75c.26 0 .47.2.47.45v4.36c0 .25-.21.45-.47.45zM46.32 44.65h-8.75a.46.46 0 0 1-.47-.45v-4.36c0-.25.21-.45.47-.45h8.75c.26 0 .47.2.47.45v4.36c0 .25-.21.45-.47.45zM16.46 26.74h5.42M16.46 30.65h11.17M33.31 33.5c.3.47.99.8 1.8.8 1.08 0 1.96-.29 1.96-1.31s-.88-1.31-1.96-1.31-1.96-.36-1.96-1.31.88-1.31 1.96-1.31c.74 0 1.39.28 1.72.69M35.11 29.05v-1.18M35.11 35.55v-1.18"/><path class="cls-1" d="M3.79 52.87V17.78c0-2.1 1.71-3.81 3.81-3.81h55.01c2.1 0 3.81 1.71 3.81 3.81l-.23 35.12"/><path class="cls-1" d="M11.03 20.74H59.2v29.08H11.03z"/><path class="cls-2" d="M42.01 58.23a3.128 3.128 0 0 1-3.13 3.1h-7.53c-1.72 0-3.11-1.39-3.13-3.1H.5v2.9a5.16 5.16 0 0 0 5.16 5.16h58.9a5.16 5.16 0 0 0 5.16-5.16v-2.9H42.01z"/><circle class="cls-1" cx="90.6" cy="14.89" r="8.23"/><path class="cls-1" d="M88.71 12.82a1.92 1.92 0 1 1 1.9 2.19v1.37"/><circle class="cls-3" cx="90.62" cy="18.9" r=".74"/></g></svg>