<svg id="Layer_2" xmlns="http://www.w3.org/2000/svg" viewBox="0 0 57.07 55.28"><defs><style>.cls-1{fill:none;stroke:#0050b5;stroke-linecap:round;stroke-linejoin:round}</style></defs><g id="Layer_1-2"><path class="cls-1" d="M13.58.5v17.73c0 7.69 12.04 13.04 13.96 13.04s13.87-5.35 13.87-13.04V.5H13.58z"/><path class="cls-1" d="M25.15 5.77h4.71c1.02 0 1.85.83 1.85 1.85v3.94h-8.42V7.62c0-1.02.83-1.85 1.85-1.85z"/><rect class="cls-1" x="20.57" y="11.56" width="13.89" height="10.41" rx="1.15" ry="1.15"/><circle class="cls-1" cx="27.51" cy="15.77" r="1.42"/><path class="cls-1" d="M27.51 17.52v1.42"/><path class="cls-1" transform="rotate(-172.91 50.747 45.818)" d="M45.93 37.39h9.63v16.86h-9.63z"/><path class="cls-1" d="M45.07 52.39l-20.88 1.99c-.79.08-1.59-.11-2.27-.52L1.11 41.19a1.28 1.28 0 0 1-.6-1.24l.3-2.42c.1-.8.91-1.3 1.67-1.04l14.81 5.15"/><path class="cls-1" d="M46.86 38.05L36.02 36.7a3.75 3.75 0 0 0-2.11.36l-5.77 2.89c-.65.33-1.38.45-2.11.36l-7.55-.94c-.5-.06-.95.29-1.01.79l-.39 3.16c-.05.42.19.82.59.96l8.65 3.09c.73.26 1.52.28 2.26.07l7.67-2.21"/><circle class="cls-1" cx="50.2" cy="50.17" r="1.28"/></g></svg>