<svg id="Layer_2" xmlns="http://www.w3.org/2000/svg" viewBox="0 0 62.71 58.37"><defs><style>.cls-1{fill:none;stroke:#0050b5;stroke-linecap:round;stroke-linejoin:round}</style></defs><g id="Layer_1-2"><path class="cls-1" d="M31.94 17.86V9.65l-31.44 8v40.22h22.79"/><path class="cls-1" d="M19.38 35.26h3.91v4.96h-3.91zM19.38 46.76h3.91v4.96h-3.91zM5.24 24.17h7.82v4.96H5.24zM19.38 24.17h3.91v4.96h-3.91zM5.24 35.26h7.82v4.96H5.24zM29.31 35.26h4.96v4.96h-4.96zM39.88 35.26h4.96v4.96h-4.96zM29.31 46.79h4.96v4.96h-4.96zM39.88 46.79h4.96v4.96h-4.96zM29.31 23.73h4.96v4.96h-4.96zM5.24 46.76h7.82v4.96H5.24z"/><path class="cls-1" d="M50.44 29.13v28.74H23.29V17.86h16.59"/><path class="cls-1" d="M39.88 11.24h22.33v17.5H39.88z"/><path class="cls-1" d="M39.88 11.24h22.33v3.83H39.88zM60.74 11.32l-4.59 3.63M53.36 11.32l-4.59 3.63M45.98 11.32l-4.59 3.63"/><path class="cls-1" transform="rotate(161.43 49.858 5.872)" d="M38.69 3.96h22.33v3.83H38.69z"/><path class="cls-1" d="M40.08 7.21l5.51 1.99M47.08 4.86l5.51 1.99M54.08 2.51l5.51 1.98M49.49 25.04v-6.28l3.72 3.17-3.72 3.11z"/></g></svg>