<svg id="Layer_2" xmlns="http://www.w3.org/2000/svg" viewBox="0 0 65.55 34.23"><defs><style>.cls-1{stroke-linecap:round}.cls-1,.cls-2{fill:none;stroke:#0050b5;stroke-linejoin:round}</style></defs><g id="Layer_1-2"><circle class="cls-1" cx="56.49" cy="9.06" r="8.56"/><path class="cls-1" d="M54.26 11.27c.37.58 1.23.99 2.23.99 1.33 0 2.42-.36 2.42-1.62s-1.08-1.62-2.42-1.62c-1.33 0-2.42-.45-2.42-1.62s1.08-1.62 2.42-1.62c.92 0 1.72.34 2.13.85M56.49 5.77V4.32M56.49 13.8v-1.45"/><path class="cls-2" d="M6.49 9.06h5.99v24.67H6.49zM.5 13.77h5.99v15.26H.5zM50.5 15.32v18.41h-5.99V9.06h3.74M56.49 17.77v11.26H50.5"/><path class="cls-2" transform="rotate(180 28.495 21.395)" d="M12.48 19.19h32.03v4.42H12.48z"/></g></svg>