<svg id="Layer_2" xmlns="http://www.w3.org/2000/svg" viewBox="0 0 33.53 47.34"><defs><style>.cls-1,.cls-2{fill:none;stroke:#0050b5}.cls-1{stroke-linecap:round;stroke-linejoin:round}.cls-2{stroke-miterlimit:10}</style></defs><g id="Layer_1-2"><circle class="cls-1" cx="16.74" cy="30.59" r="10.32"/><path class="cls-1" d="M14.06 33.26c.44.7 1.48 1.19 2.68 1.19 1.61 0 2.91-.44 2.91-1.95s-1.3-1.95-2.91-1.95-2.91-.54-2.91-1.95 1.3-1.95 2.91-1.95c1.11 0 2.07.42 2.56 1.03M16.74 26.63v-1.75M16.74 36.31v-1.75"/><path id="Path_88" class="cls-2" d="M1.18 34.85c-1.25-4.33-.84-9.2 1.72-13.5l6.12-10.3-.13-.26-5.17-9.12c2.93-2.21 7.01-.78 8.71.91l.38-.29c.54-.4 1.14-.72 1.77-.93.71-.24 1.45-.3 2.19-.31.77.02 1.48.07 2.19.31.64.21 1.24.53 1.77.93l.38.29c1.7-1.68 5.78-3.2 8.85-.91l-5.3 9.12-.13.26c.96 1.61 6.12 10.3 6.12 10.3 6.1 10.28-.02 23.85-11.87 25.36-.37.05-.74.08-1.11.11-.29.02-.59.03-.89.03s-.59 0-.89-.03c-.37-.02-.74-.06-1.11-.11-6.89-.88-11.84-5.84-13.58-11.85z"/><path class="cls-1" d="M7.11 11.13h19.26"/></g></svg>