<svg id="Layer_2" xmlns="http://www.w3.org/2000/svg" viewBox="0 0 79.44 58.27"><defs><style>.cls-1{stroke-linecap:round}.cls-1,.cls-2{fill:none;stroke:#0050b5;stroke-linejoin:round}.cls-3{fill:#0050b5}</style></defs><g id="Layer_1-2"><path class="cls-1" d="M51.59 12.23V3.29A2.79 2.79 0 0 1 54.38.5h21.77a2.79 2.79 0 0 1 2.79 2.79l-.17 42.1a2.793 2.793 0 0 1-2.79 2.77H65.27M69.66 4.34h-8.79M78.85 8.15H51.59"/><circle class="cls-3" cx="65.26" cy="43.45" r="1.32"/><path class="cls-1" d="M78.31 38.87H57.89M62.6 26.11c.44.7 1.47 1.19 2.67 1.19 1.6 0 2.89-.43 2.89-1.94s-1.3-1.94-2.89-1.94c-1.6 0-2.89-.53-2.89-1.94s1.29-1.94 2.89-1.94c1.1 0 2.06.41 2.55 1.02M65.27 19.53v-1.74M65.27 29.14V27.4M28.49 38.93h-7.62c-.23 0-.41-.18-.41-.39v-3.8c0-.22.18-.39.41-.39h7.62c.23 0 .41.18.41.39v3.8c0 .22-.18.39-.41.39zM40.39 38.93h-7.62c-.23 0-.41-.18-.41-.39v-3.8c0-.22.18-.39.41-.39h7.62c.23 0 .41.18.41.39v3.8c0 .22-.18.39-.41.39zM14.39 23.34h4.72M14.39 26.75h9.72M29.06 29.22c.26.41.86.7 1.57.7.94 0 1.7-.26 1.7-1.14s-.76-1.14-1.7-1.14-1.7-.31-1.7-1.14.76-1.14 1.7-1.14c.65 0 1.21.24 1.5.6M30.63 25.35v-1.02M30.63 31.01v-1.03"/><path class="cls-1" d="M3.37 46.09V15.54c0-1.83 1.48-3.32 3.32-3.32h47.88c1.83 0 3.32 1.48 3.32 3.32l-.2 30.58"/><path class="cls-1" d="M9.66 18.12h41.93v25.31H9.66z"/><path class="cls-2" d="M36.63 50.75a2.727 2.727 0 0 1-2.73 2.7h-6.56c-1.5 0-2.71-1.21-2.73-2.7H.5v2.53a4.49 4.49 0 0 0 4.49 4.49h51.27a4.49 4.49 0 0 0 4.49-4.49v-2.53H36.63z"/></g></svg>