<svg id="Layer_2" xmlns="http://www.w3.org/2000/svg" viewBox="0 0 49.81 48.8"><defs><style>.cls-1,.cls-2{fill:none;stroke:#0050b5}.cls-1{stroke-linecap:round;stroke-linejoin:round}.cls-2{stroke-miterlimit:10}</style></defs><g id="Layer_1-2"><path class="cls-1" d="M28.94 23.73c1.1-.31 2.13-.8 3.06-1.43l1.95 1.5 2.39-2.39-1.5-1.95c.81-1.18 1.38-2.54 1.65-4l2.45-.32v-3.38l-2.45-.32c-.28-1.46-.85-2.82-1.65-4l1.5-1.95-2.39-2.39L32 4.6c-1.19-.81-2.54-1.38-4-1.65L27.68.5H24.3l-.32 2.45c-1.46.28-2.82.85-4 1.65l-1.95-1.5-2.39 2.39 1.5 1.95c-.81 1.18-1.38 2.54-1.65 4l-2.45.32v1.69"/><path class="cls-1" d="M20.84 8.24a7.28 7.28 0 0 1 5.15-2.11c4.04 0 7.32 3.28 7.32 7.32 0 3.04-1.86 5.65-4.5 6.76"/><path class="cls-1" d="M23.04 3.18c-1.1.31-2.13.8-3.06 1.43l-1.95-1.5-2.39 2.39 1.5 1.95c-.81 1.18-1.38 2.54-1.65 4l-2.45.32v3.38l2.45.32c.28 1.46.85 2.82 1.65 4l-1.5 1.95 2.39 2.39 1.95-1.5c1.19.81 2.54 1.38 4 1.65l.32 2.45h3.38l.32-2.45c1.46-.28 2.82-.85 4-1.65l1.95 1.5 2.39-2.39-1.5-1.95c.81-1.18 1.38-2.54 1.65-4l2.45-.32v-1.69"/><path class="cls-1" d="M31.14 18.66a7.28 7.28 0 0 1-5.15 2.11c-4.04 0-7.32-3.28-7.32-7.32 0-3.04 1.86-5.65 4.5-6.76"/><path class="cls-1" transform="rotate(-172.91 44.24 40.5)" d="M40.05 33.16h8.39v14.68h-8.39z"/><path class="cls-1" d="M39.3 46.22l-18.18 1.73c-.69.07-1.38-.09-1.97-.45L1.03 36.47c-.37-.23-.57-.65-.52-1.08l.26-2.1c.09-.7.79-1.13 1.45-.9l12.89 4.49"/><path class="cls-1" d="M40.86 33.74l-9.44-1.17c-.63-.08-1.27.03-1.83.32l-5.02 2.51c-.57.28-1.21.39-1.83.32l-6.58-.82a.794.794 0 0 0-.88.68l-.34 2.75c-.05.37.17.71.52.84l7.53 2.69c.63.23 1.32.25 1.97.06l6.68-1.93"/><circle class="cls-2" cx="43.82" cy="43.91" r="1.27"/></g></svg>