<svg id="Layer_2" xmlns="http://www.w3.org/2000/svg" viewBox="0 0 47.38 38.52"><defs><style>.cls-1{fill:none;stroke:#0050b5;stroke-linecap:round;stroke-linejoin:round}</style></defs><g id="Layer_1-2"><circle class="cls-1" cx="15.61" cy="30.99" r="3.51"/><path class="cls-1" d="M42.69.5L18.65 24.55c-2.63-1.24-5.86-.78-8.03 1.39-2.76 2.76-2.76 7.25 0 10.01s7.25 2.76 10.01 0c2.17-2.17 2.63-5.4 1.39-8.03l8.17-8.17 3.8 3.8 2.46-2.46-3.8-3.8 2.87-2.87 3.8 3.8 1.85-1.85c-1.07-1.07-1.07-2.8 0-3.87s2.8-1.07 3.87 0l1.85-1.85-3.8-3.8 2.99-2.99L42.71.49zM15.61 18.95v-3.07M7.09 22.47l-2.16-2.16M3.57 30.99H.5"/></g></svg>