<svg id="Layer_2" xmlns="http://www.w3.org/2000/svg" viewBox="0 0 49.32 37.37"><defs><style>.cls-1{stroke-linecap:round}.cls-1,.cls-2{fill:none;stroke:#0050b5;stroke-linejoin:round}</style></defs><g id="Layer_1-2"><path class="cls-2" d="M19.97 30.32h9.38l2.29 6.55H17.69l2.28-6.55z"/><path class="cls-1" d="M19.24 11.06l.73-2.1h9.38l2.29 6.54h-8.6"/><path class="cls-2" d="M2.79 30.32h9.37l2.29 6.55H.5l2.29-6.55z"/><path class="cls-1" d="M19.33 19.51h1.42l2.29 6.55H9.09l.83-2.38 1.46-4.17H13"/><path class="cls-1" d="M16.19 19.8l-1.11-1.81c-.35-.58-.85-1.05-1.45-1.37l-1.87-1 1.81-1.11c.58-.35 1.05-.85 1.37-1.45l1-1.87L17.05 13c.35.58.85 1.05 1.45 1.37l1.87 1-1.81 1.11c-.58.35-1.05.85-1.37 1.45l-1 1.87zM38.67 21.61l-.73-2.1h-9.37l-2.29 6.55h8.59M38.59 30.07h-1.43l-2.29 6.54H48.82l-.83-2.38-1.46-4.16h-1.61"/><path class="cls-1" d="M41.72 30.36l1.11-1.81c.35-.58.85-1.05 1.45-1.37l1.87-1-1.81-1.11c-.58-.35-1.05-.85-1.37-1.45l-1-1.87-1.11 1.81c-.35.58-.85 1.05-1.45 1.37l-1.87 1 1.81 1.11c.58.35 1.05.85 1.37 1.45l1 1.87z"/><circle class="cls-1" cx="37.54" cy="12.92" r="1.71"/><circle class="cls-1" cx="3.35" cy="24.34" r="1.71"/><path class="cls-1" d="M29.64 4.64l1.77-1.77M24.68 3.01V.5M19.72 4.65l-1.77-1.77"/></g></svg>