<svg id="Layer_2" xmlns="http://www.w3.org/2000/svg" viewBox="0 0 39.62 37.22"><defs><style>.cls-1{stroke-linecap:round}.cls-1,.cls-2{fill:none;stroke:#0050b5;stroke-linejoin:round}</style></defs><g id="Layer_1-2"><path class="cls-2" d="M.5 17.65h29.69v19.07H.5z"/><circle class="cls-2" cx="20.91" cy="9.57" r="4.59"/><circle class="cls-2" cx="7.22" cy="13.52" r=".58"/><path class="cls-2" d="M15.71 17.49a9.268 9.268 0 0 1-4.09-7.7 9.29 9.29 0 0 1 18.58 0c0 3.31-1.73 6.22-4.34 7.86h-9.91l-.24-.16z"/><path class="cls-2" d="M4.48 17.56a4.89 4.89 0 1 1 7.62-4.06c0 1.75-.91 3.28-2.29 4.14h-5.2l-.12-.09zM34.02 20.27h-3.83v7.61h3.83l5.1 2.52V17.75l-5.1 2.52z"/><path class="cls-1" d="M24.6 31.6h-7.62M24.6 26.37h-4.89"/><path class="cls-2" d="M5.44 26.71h7.1v4.89h-7.1z"/></g></svg>