<svg id="Layer_2" xmlns="http://www.w3.org/2000/svg" viewBox="0 0 50.87 43.28"><defs><style>.cls-1{fill:none;stroke:#0050b5;stroke-linecap:round;stroke-linejoin:round}</style></defs><g id="Layer_1-2"><path class="cls-1" d="M.55 10.95h49.82v31.83H.55zM7.29.5L.5 10.89h49.87L43.58.5H7.29zM16.41.73l-4.06 10.22M34.1.73l4.07 10.22M25.72.73v10.22"/><path class="cls-1" d="M31.53 25.36h11.59v17.42H31.53zM8.35 25.36h15.74v10.85H8.35zM12.82 11.61c0 3.4-2.76 6.16-6.16 6.16S.5 15.02.5 11.61M25.15 11.61c0 3.4-2.76 6.16-6.16 6.16s-6.16-2.76-6.16-6.16M38.04 11.61c0 3.4-2.76 6.16-6.16 6.16s-6.16-2.76-6.16-6.16M50.37 11.61c0 3.4-2.76 6.16-6.16 6.16s-6.16-2.76-6.16-6.16"/></g></svg>