<svg id="Layer_2" xmlns="http://www.w3.org/2000/svg" viewBox="0 0 49.81 39.05"><defs><style>.cls-1{fill:none;stroke:#0050b5;stroke-linecap:round;stroke-linejoin:round}</style></defs><g id="Layer_1-2"><path class="cls-1" transform="rotate(-172.91 44.242 30.752)" d="M40.05 23.41h8.39v14.68h-8.39z"/><path class="cls-1" d="M39.3 36.47L21.12 38.2c-.69.07-1.38-.09-1.97-.45L1.03 26.72c-.37-.23-.57-.65-.52-1.08l.26-2.1c.09-.7.79-1.13 1.45-.9l12.89 4.49"/><path class="cls-1" d="M40.86 23.99l-9.44-1.17c-.63-.08-1.27.03-1.83.32l-5.02 2.51c-.57.28-1.21.39-1.83.32l-6.58-.82a.794.794 0 0 0-.88.68l-.34 2.75c-.05.37.17.71.52.84l7.53 2.69c.63.23 1.32.25 1.97.06l6.68-1.93M35.57 8.72l-.05 7.85c-.35 1.13-2.81 2.01-5.79 2.01s-5.44-.88-5.79-2.01l-.05-4.13"/><path class="cls-1" d="M12.21 8.72l.09 7.85c.35 1.13 2.81 2.01 5.79 2.01 2.99 0 5.44-.88 5.79-2.01l.05-3.39M29.73 6.31c3.22 0 5.84 1.02 5.84 2.29s-2.61 2.29-5.84 2.29c-2.82 0-5.18-.78-5.72-1.83"/><path class="cls-1" d="M23.89 9.06l.05 3.67c.35 1.13 2.81 2.01 5.79 2.01s5.44-.88 5.79-2.01l.05-2.8"/><ellipse class="cls-1" cx="23.94" cy="2.79" rx="5.84" ry="2.29"/><path class="cls-1" d="M18.1 2.79l.05 4.13c.35 1.13 2.81 2.01 5.79 2.01s5.44-.88 5.79-2.01l.05-4.13"/><path class="cls-1" d="M23.77 9.06c-.54 1.04-2.9 1.83-5.72 1.83-3.22 0-5.84-1.02-5.84-2.29s2.61-2.29 5.84-2.29M12.26 12.73c.35 1.13 2.81 2.01 5.79 2.01s5.31-.9 5.79-2.01"/><circle class="cls-1" cx="43.77" cy="34.51" r="1.28"/></g></svg>