<svg id="Layer_2" xmlns="http://www.w3.org/2000/svg" viewBox="0 0 95.21 48.11"><defs><style>.cls-1{fill:none;stroke:#0050b5;stroke-linecap:round;stroke-linejoin:round}</style></defs><g id="Layer_1-2"><path class="cls-1" d="M5.62 23.56l-1.11-1.81c-.35-.58-.85-1.05-1.45-1.37l-1.87-1L3 18.27c.58-.35 1.05-.85 1.37-1.45l1-1.87 1.11 1.81c.35.58.85 1.05 1.45 1.37l1.87 1-1.81 1.11c-.58.35-1.05.85-1.37 1.45l-1 1.87zM42.11 47.61L41 45.8c-.35-.58-.85-1.05-1.45-1.37l-1.87-1 1.81-1.11c.58-.35 1.05-.85 1.37-1.45l1-1.87 1.11 1.81c.35.58.85 1.05 1.45 1.37l1.87 1-1.81 1.11c-.58.35-1.05.85-1.37 1.45l-1 1.87zM89.85 31.26l-1.11-1.81c-.35-.58-.85-1.05-1.45-1.37l-1.87-1 1.81-1.11c.58-.35 1.05-.85 1.37-1.45l1-1.87 1.11 1.81c.35.58.85 1.05 1.45 1.37l1.87 1-1.81 1.11c-.58.35-1.05.85-1.37 1.45l-1 1.87zM57.54 6.55l2.39-.76M54.78 3.26l1.16-2.22M50.51 2.89L49.76.5"/><circle class="cls-1" cx="47.6" cy="14.93" r="8.58"/><path class="cls-1" d="M37.84 46.9h-5.93V34.97a5.84 5.84 0 0 1 5.84-5.84h19.72a5.84 5.84 0 0 1 5.84 5.84V46.9H46.14M7.66 14.05c.44-4.33 4.09-7.7 8.54-7.7 4.74 0 8.58 3.84 8.58 8.58s-3.84 8.58-8.58 8.58c-1.82 0-3.51-.57-4.9-1.53M6.34 29.13h19.72c3.22 0 5.84 2.62 5.84 5.84V46.9H.5V34.97c0-3.22 2.62-5.84 5.84-5.84z"/><circle class="cls-1" cx="79" cy="14.93" r="8.58"/><path class="cls-1" d="M93.49 31.41c.76.99 1.21 2.22 1.21 3.56V46.9H63.3V34.97a5.84 5.84 0 0 1 5.84-5.84h14.55"/></g></svg>