<svg id="Layer_2" xmlns="http://www.w3.org/2000/svg" viewBox="0 0 44.33 51.65"><defs><style>.cls-1{fill:none;stroke:#0050b5;stroke-linecap:round;stroke-linejoin:round}</style></defs><g id="Layer_1-2"><path class="cls-1" d="M43.83 25.21h-9.75v14.68a4.15 4.15 0 0 0-.79-.08c-2.49 0-4.52 2.02-4.52 4.52s2.02 4.52 4.52 4.52c2.29 0 4.16-1.71 4.46-3.92l.06-15.99h6.03v-3.73zM25.31 10.39l-.06 17.72c-.3 2.21-2.17 3.92-4.46 3.92-2.49 0-4.52-2.02-4.52-4.52s2.02-4.52 4.52-4.52c.27 0 .53.03.79.08v-8.95H9.54l-.06 16.99c-.3 2.21-2.17 3.92-4.46 3.92-2.49 0-4.52-2.02-4.52-4.52s2.02-4.52 4.52-4.52c.27 0 .53.03.79.08V10.39h19.5zM36.17 18.65l1.11-1.81c.35-.58.85-1.05 1.45-1.37l1.87-1-1.81-1.11c-.58-.35-1.05-.85-1.37-1.45l-1-1.87-1.11 1.81c-.35.58-.85 1.05-1.45 1.37l-1.87 1 1.81 1.11c.58.35 1.05.85 1.37 1.45l1 1.87z"/><circle class="cls-1" cx="29.12" cy="2.21" r="1.71"/><path class="cls-1" d="M8.48 42.55l1.11 1.81c.35.58.85 1.05 1.45 1.37l1.87 1-1.81 1.11c-.58.35-1.05.85-1.37 1.45l-1 1.87-1.11-1.81c-.35-.58-.85-1.05-1.45-1.37l-1.87-1 1.81-1.11c.58-.35 1.05-.85 1.37-1.45l1-1.87z"/><circle class="cls-1" cx="20.41" cy="39.83" r="1.71"/></g></svg>