<svg id="Layer_2" xmlns="http://www.w3.org/2000/svg" viewBox="0 0 98.44 56.72"><defs><style>.cls-1{fill:none;stroke:#0050b5;stroke-linecap:round;stroke-linejoin:round}</style></defs><g id="Layer_1-2"><path class="cls-1" d="M50.61 43.58l-2.08 2.08M53.54 44.89l.61-.61a3 3 0 0 0 0-4.24 3 3 0 0 0-4.24 0l-.61.61M45.97 43.98l-.99.99a3 3 0 0 0 0 4.24 3 3 0 0 0 4.24 0l.99-.99"/><circle class="cls-1" cx="16.76" cy="12.17" r="3.81"/><path class="cls-1" d="M12.38 16.76h8.76a2.59 2.59 0 0 1 2.59 2.59v4.62H9.79v-4.62a2.59 2.59 0 0 1 2.59-2.59z"/><circle class="cls-1" cx="16.76" cy="16.76" r="16.26"/><circle class="cls-1" cx="81.67" cy="12.17" r="3.81"/><path class="cls-1" d="M77.29 16.76h8.76a2.59 2.59 0 0 1 2.59 2.59v4.62H74.69v-4.62a2.59 2.59 0 0 1 2.59-2.59z"/><circle class="cls-1" cx="81.67" cy="16.76" r="16.26"/><circle class="cls-1" cx="49.3" cy="44.62" r="11.6"/><path class="cls-1" d="M69.8 27.87L59.52 38.15M28.87 27.87l10.28 10.28"/></g></svg>