<svg id="Layer_2" xmlns="http://www.w3.org/2000/svg" viewBox="0 0 42.94 37.66"><defs><style>.cls-1{fill:none;stroke:#0050b5;stroke-linejoin:round}</style></defs><path class="cls-1" d="M21.49 37.16c-.16-.1-7.28-6.21-10.74-9.22-2.51-2.18-4.92-4.46-6.94-7.12-1.58-2.08-2.8-4.32-3.17-6.96-.45-3.23.13-6.24 1.97-8.96C5.93-.03 13.45-1.37 18.06 3.75c1.68 1.69 1.96 3.31 3.39 3.3.85 0 1.75-1.61 3.43-3.3C29.5-1.37 37.02-.03 40.34 4.9c1.84 2.73 2.41 5.74 1.97 8.96-.36 2.63-1.59 4.88-3.17 6.96-2.02 2.66-4.44 4.94-6.94 7.12-3.46 3.02-10.58 9.13-10.7 9.22z" id="Layer_1-2"/></svg>