<svg id="Layer_2" xmlns="http://www.w3.org/2000/svg" viewBox="0 0 45.61 50.09"><defs><style>.cls-1{stroke-linecap:round}.cls-1,.cls-2{fill:none;stroke:#0050b5;stroke-linejoin:round}</style></defs><g id="Layer_1-2"><path class="cls-2" d="M24.57 30.91c-.05-.03-2.33-1.99-3.43-2.95-.8-.7-1.57-1.43-2.22-2.28-.5-.66-.9-1.38-1.01-2.22-.14-1.03.04-1.99.63-2.87 1.06-1.58 3.47-2 4.94-.37.54.54.63 1.06 1.08 1.05.27 0 .56-.51 1.1-1.05 1.48-1.64 3.88-1.21 4.94.37.59.87.77 1.83.63 2.87-.12.84-.51 1.56-1.01 2.22-.65.85-1.42 1.58-2.22 2.28-1.11.96-3.38 2.92-3.42 2.95z"/><path class="cls-1" d="M22.87 40.58l-4.8 1.19c-.47.12-.95.08-1.4-.1l-5.29-2.12a.553.553 0 0 1-.34-.61l.32-1.95c.05-.31.34-.51.64-.46l4.66.76c.45.07.9.01 1.31-.17l3.64-1.65c.41-.19.87-.25 1.31-.17l9.73.38c.37.02.74.11 1.07.27l11.37 6.71-5.13 6.93-6.87-3.43c-.26-.13-.55-.2-.84-.2H15.18c-.49.02-.98-.11-1.39-.38L1.2 37.24a.78.78 0 0 1-.34-.78l.24-1.49c.08-.49.59-.78 1.06-.6l9.05 3.55M22.73 9.51l4.8-1.19c.47-.12.95-.08 1.4.1l5.29 2.12c.24.1.39.35.34.61l-.32 1.95c-.05.31-.34.51-.64.46l-4.66-.76c-.45-.07-.9-.01-1.31.17l-3.64 1.65c-.41.19-.87.25-1.31.17l-9.73-.38c-.37-.02-.74-.11-1.07-.27L.5 7.43 5.63.5l6.87 3.43c.26.13.55.2.84.2h17.09c.49-.02.98.11 1.39.38l12.59 8.34c.26.17.39.48.34.78l-.24 1.49c-.08.49-.59.78-1.06.6l-9.05-3.55"/></g></svg>