<svg id="Layer_2" xmlns="http://www.w3.org/2000/svg" viewBox="0 0 88.26 72.72"><defs><style>.cls-1,.cls-2{fill:none;stroke:#0050b5;stroke-linecap:round;stroke-linejoin:round}.cls-2{stroke-width:2px}</style></defs><g id="Layer_1-2"><path class="cls-1" d="M38.12 38.21v10.75l-.04.07-1.66-2.25c-1.21-1.63-3.36-2.44-5.62-.47l4.2 6.15 2.94 4.42c.33.64.79 1.19 1.34 1.62.32.26.49.66.49 1.07v2.14M42.14 38.31v-4.37a2.01 2.01 0 0 1 2.35-1.98c.99.16 1.67 1.09 1.67 2.09v1.78a2.01 2.01 0 0 1 2.35-1.98c.99.16 1.67 1.09 1.67 2.09v3.82c0-.93.58-1.81 1.49-2.05 1.33-.36 2.53.71 2.53 1.99v12.6a7.3 7.3 0 0 1-2.23 5.25c-.29.28-.48.65-.48 1.06v2.85"/><path class="cls-1" d="M42.13 44.74v-8.92c0-1-.68-1.93-1.67-2.09-1.26-.2-2.35.76-2.35 1.98v2.5"/><path class="cls-1" transform="rotate(-90 45.005 66.965)" d="M39.75 57.77h10.51v18.39H39.75z"/><circle class="cls-2" cx="39.61" cy="66.97" r=".15"/><path class="cls-1" d="M55.33 28.09l3.07-1.24 6.91-2.77.08.02-1.47 2.38c-1.07 1.73-1.01 4.03 1.66 5.39l4.14-6.19 3-4.37c.47-.55.81-1.18 1.01-1.84.12-.39.43-.7.81-.86l1.99-.8M53.93 24.31l-4.06 1.63c-1.13.45-2.43-.2-2.71-1.44-.22-.98.39-1.96 1.32-2.33l8.61-3.46-6.96 2.79c-1.13.45-2.43-.2-2.71-1.44-.22-.98.39-1.96 1.32-2.33l8.24-3.31-4.7 1.89c-.86.35-1.9.13-2.46-.62-.83-1.11-.29-2.61.91-3.09l8.61-3.45 3.08-1.24c1.91-.77 3.96-.67 5.7.12.37.17.78.2 1.16.05l2.64-1.06M59.89 21.93l-8.28 3.32c-.93.37-1.54 1.35-1.32 2.33A2.014 2.014 0 0 0 53 29.02l2.32-.93"/><path class="cls-1" transform="rotate(158.14 79.456 10.987)" d="M74.2 1.8h10.51v18.39H74.2z"/><circle class="cls-2" cx="81.46" cy="15.99" r=".15"/><path class="cls-1" d="M38.09 16.19l-3.05-1.29-6.84-2.92-.05-.07 2.73-.64c1.98-.47 3.57-2.13 2.64-4.99l-7.3 1.44-5.22.97c-.72.05-1.4.26-2.02.59-.36.2-.8.2-1.18.03l-1.97-.84M36.42 19.85l4.02 1.72c1.12.48 1.58 1.86.9 2.94-.54.85-1.66 1.11-2.58.72l-8.53-3.65 6.9 2.95c1.12.48 1.58 1.86.9 2.94-.54.85-1.66 1.11-2.58.72l-8.17-3.49 4.66 1.99c.86.37 1.43 1.25 1.3 2.17-.2 1.37-1.65 2.05-2.83 1.55l-8.53-3.64-3.06-1.31a7.3 7.3 0 0 1-3.95-4.11c-.14-.38-.41-.7-.79-.85l-2.62-1.12"/><path class="cls-1" d="M30.51 17.32l8.2 3.51c.92.39 2.04.13 2.58-.72.68-1.08.22-2.46-.9-2.94l-2.3-.98"/><path class="cls-1" transform="rotate(23.14 8.94 11.224)" d="M3.69 2.03H14.2v18.39H3.69z"/><circle class="cls-2" cx="11.06" cy="6.27" r=".15"/></g></svg>