<svg id="Layer_2" xmlns="http://www.w3.org/2000/svg" viewBox="0 0 57.07 56.85"><defs><style>.cls-1{fill:none;stroke:#0050b5;stroke-linecap:round;stroke-linejoin:round}</style></defs><g id="Layer_1-2"><path class="cls-1" transform="rotate(-172.91 50.744 47.395)" d="M45.93 38.97h9.63v16.86h-9.63z"/><path class="cls-1" d="M45.07 53.97l-20.88 1.99c-.79.08-1.59-.11-2.27-.52L1.11 42.77a1.28 1.28 0 0 1-.6-1.24l.3-2.42c.1-.8.91-1.3 1.67-1.04l14.81 5.15"/><path class="cls-1" d="M46.86 39.63l-10.84-1.35a3.75 3.75 0 0 0-2.11.36l-5.77 2.89c-.65.33-1.38.45-2.11.36l-7.55-.94c-.5-.06-.95.29-1.01.79l-.39 3.16c-.05.42.19.82.59.96l8.65 3.09c.73.26 1.52.28 2.26.07l7.67-2.21M50.15 52.17"/><g id="_4"><path class="cls-1" d="M9.71 16.42c0-4.04 1.5-7.73 3.98-10.54C16.6 2.58 20.85.51 25.59.5M25.6.5c-2.78 0-7.46 5.27-8.7 12.33"/><path class="cls-1" d="M27.79.65c-.72-.1-1.45-.15-2.2-.15-4.74 0-8.99 2.08-11.9 5.38 1.32.77 2.92 1.48 4.72 2.02 2.16.65 4.6 1.07 7.19 1.06.72 0 1.42-.03 2.11-.09"/><path class="cls-1" d="M41.51 16.42c0-4.04-1.5-7.73-3.98-10.54A15.887 15.887 0 0 0 25.63.5M25.63.5c2.78 0 7.46 5.27 8.7 12.33"/><path class="cls-1" d="M23.44.65c.72-.1 1.45-.15 2.2-.15 4.74 0 8.99 2.08 11.9 5.38-1.32.77-2.92 1.48-4.72 2.02-2.16.65-4.6 1.07-7.19 1.06-.72 0-1.42-.03-2.11-.09"/><path class="cls-1" d="M25.59.92l.01.84v7.2l.01 7.44M41.28 16.39l-31.55.03"/><g><path class="cls-1" d="M41.51 16.42c0 4.04-1.5 7.73-3.98 10.54a15.887 15.887 0 0 1-11.9 5.38M25.63 32.34c2.78 0 7.46-5.27 8.7-12.33"/><path class="cls-1" d="M23.44 32.19c.72.1 1.45.15 2.2.15 4.74 0 8.99-2.08 11.9-5.38-1.32-.77-2.92-1.48-4.72-2.02-2.16-.65-4.6-1.07-7.19-1.06-.72 0-1.42.03-2.11.09"/><path class="cls-1" d="M9.71 16.42c0 4.04 1.5 7.73 3.98 10.54 2.91 3.29 7.16 5.37 11.9 5.38M25.6 32.34c-2.78 0-7.46-5.27-8.7-12.33"/><path class="cls-1" d="M27.79 32.19c-.72.1-1.45.15-2.2.15-4.74 0-8.99-2.08-11.9-5.38 1.32-.77 2.92-1.48 4.72-2.02 2.16-.65 4.6-1.07 7.19-1.06.72 0 1.42.03 2.11.09"/><path class="cls-1" d="M25.63 31.93v-8.05l-.01-7.44M9.95 16.45l31.55-.03"/></g><g><path class="cls-1" d="M30.59 1.3C29.03.79 27.36.51 25.63.5M41.51 16.42c0-1.83-.31-3.59-.88-5.23"/></g></g></g></svg>