<svg id="Layer_2" xmlns="http://www.w3.org/2000/svg" viewBox="0 0 57.07 56.93"><defs><style>.cls-1{fill:none;stroke:#0050b5;stroke-linecap:round;stroke-linejoin:round}</style></defs><g id="Layer_1-2"><path class="cls-1" transform="rotate(-172.91 50.744 47.47)" d="M45.93 39.04h9.63V55.9h-9.63z"/><path class="cls-1" d="M45.07 54.04l-20.88 1.99c-.79.08-1.59-.11-2.27-.52L1.11 42.84a1.28 1.28 0 0 1-.6-1.24l.3-2.42c.1-.8.91-1.3 1.67-1.04l14.81 5.15"/><path class="cls-1" d="M46.86 39.7l-10.84-1.35a3.75 3.75 0 0 0-2.11.36l-5.77 2.89c-.65.33-1.38.45-2.11.36l-7.55-.94c-.5-.06-.95.29-1.01.79l-.39 3.16c-.05.42.19.82.59.96l8.65 3.09c.73.26 1.52.28 2.26.07l7.67-2.21M36.58 17.03l-8.53 8.53"/><ellipse class="cls-1" cx="35.66" cy="23.88" rx="1.48" ry="1.9"/><ellipse class="cls-1" cx="29.45" cy="18.25" rx="1.48" ry="1.9"/><ellipse class="cls-1" cx="20.77" cy="20.53" rx="3.44" ry="4.72"/><path class="cls-1" d="M23.48 17.82l-5.41 5.42"/><g><path class="cls-1" d="M27.24.5L13.56 11.1v21.45h27.36V11.1L27.24.5z"/><path class="cls-1" d="M10.5 13.33L27.24.5l16.74 12.88"/></g></g></svg>