<svg id="Layer_2" xmlns="http://www.w3.org/2000/svg" viewBox="0 0 757.12 119.01"><defs><style>.cls-1{fill:#0050b6}.cls-2{fill:#fff}.cls-3{fill:#fe3b1f}</style></defs><g id="FHB_Artwork"><path class="cls-2" d="M78.52 0H0v67.33l10.56 11.2h67.96V0z"/><path class="cls-3" d="M78.53 52.74V0H27.38C51.57 8.65 70.6 28.22 78.52 52.74"/><path class="cls-1" d="M72.88 78.53H7.19A7.19 7.19 0 0 1 0 71.34V4.83c16.75.11 32.18 5.86 44.5 15.45L29.21 38.85l-19.75.5 10.8 12.04L6.13 72.81l24.52-11.12 14.64 11.12V53.73L63.02 41.5c6.27 10.8 9.86 23.34 9.86 36.71v.32zM45.29 20.91v17.94l16.36.39a73.978 73.978 0 0 0-16.36-18.33M283.53 48.31c0 10.67-8.99 18.42-21.37 18.42-6.79 0-12.52-1.47-17.37-4.48a27.24 27.24 0 0 1-3.88-2.88l8.1-11.06c6.32 5.88 12.83 5.63 15.06 5.33.03 0 .05 0 .07-.01.15-.02.3-.04.44-.07.2-.03.3-.06.3-.06 2.72-.55 4.29-2.18 4.29-4.59 0-3.31-3.24-4.11-10.34-5.83-.03 0-.07-.01-.1-.02l-.74-.18c-.39-.09-.78-.18-1.18-.28a64.33 64.33 0 0 1-3.03-.8c-7.06-2.11-13.45-5.93-13.45-15.37 0-10.01 8.64-17.28 20.54-17.28 5.69 0 10.21 1.03 14.35 3.39.78.45 1.55.94 2.31 1.49.51.37 1 .75 1.48 1.16.05.05.87.7.92.75l-7.49 10.22c-.07-.06-.9-.72-.98-.78-5.91-4.56-10.89-3.98-10.89-3.98-4.32 0-6.25 2.3-6.25 4.58 0 2.56 3.01 3.48 7.69 4.59.43.1.88.2 1.34.31.61.15 1.25.3 1.92.45.57.13 1.15.27 1.74.42l.11.03c8.54 2.11 16.41 5.59 16.41 16.53zM103.27 66.56h13.84V45.75h20.82V32.9h-20.82v-9.17h24.82V10.65h-38.66v55.91zM155.42 10.65h13.99v55.91h-13.99zM288.51 23.5h14.98v43.06h13.53V23.5h14.84V10.65h-43.35V23.5zM388 31.61h-17.42V10.65h-13.91v55.91h13.91V45.3H388v21.26h13.91V10.65H388v20.96zM442.82 9.89c-15.75 0-28.56 12.88-28.56 28.71 0 7.71 2.95 14.93 8.31 20.33 5.37 5.41 12.56 8.39 20.25 8.39 16.06 0 28.64-12.61 28.64-28.71S458.61 9.9 442.82 9.9zm14.73 28.71c0 8.43-6.47 15.03-14.73 15.03s-14.58-6.6-14.58-15.03 6.4-15.1 14.58-15.1 14.73 6.64 14.73 15.1zM542.77 10.65h13.99v55.91h-13.99zM611.87 22.9V10.65h-39.72v12.78h23.22l-23.91 32.9-.07.08v10.15h40.78V53.64h-22.66l22.36-30.74zM649.76 9.89c-15.75 0-28.56 12.88-28.56 28.71 0 7.71 2.95 14.93 8.31 20.33 5.37 5.41 12.56 8.39 20.25 8.39 16.06 0 28.64-12.61 28.64-28.71S665.55 9.9 649.76 9.9zm14.73 28.71c0 8.43-6.47 15.03-14.73 15.03s-14.58-6.6-14.58-15.03 6.4-15.1 14.58-15.1 14.73 6.64 14.73 15.1zM725.26 10.65v32.32l-20.19-32.16-.1-.16h-14.29v55.91h13.3v-33.9l21.11 33.75.1.15h13.31V10.65h-13.24zM219.08 41.36c4.31-1.68 9.89-6.22 9.89-14.12 0-10.29-8.14-16.59-23.13-16.59h-20.9v55.84h15.16v-20.1h5.5l10.77 20.1h16.91l-14.2-25.13zm-15.87-5.5h-3.11V21.98h3.11c4.95 0 9.81 1.2 9.81 6.38 0 5.98-4.87 7.5-9.81 7.5zM517.91 41.36c4.31-1.68 9.89-6.22 9.89-14.12 0-10.29-8.14-16.59-23.13-16.59h-20.9v55.84h15.16v-20.1h5.5l10.77 20.1h16.91l-14.2-25.13zm-15.87-5.5h-3.11V21.98h3.11c4.95 0 9.81 1.2 9.81 6.38 0 5.98-4.87 7.5-9.81 7.5z"/><path class="cls-1" d="M283.53 48.16c0 10.67-8.99 18.42-21.37 18.42-6.79 0-12.52-1.47-17.37-4.48a27.24 27.24 0 0 1-3.88-2.88l8.1-11.06c6.32 5.88 12.83 5.63 15.06 5.33h.07c.15-.02.3-.04.44-.07.2-.03.3-.06.3-.06 2.72-.55 4.29-2.18 4.29-4.59 0-3.31-3.24-4.11-10.34-5.83-.03 0-.07-.01-.1-.02l-.74-.18c-.39-.09-.78-.18-1.18-.28a64.33 64.33 0 0 1-3.03-.8c-7.06-2.11-13.45-5.93-13.45-15.37 0-10.01 8.64-17.28 20.54-17.28 5.69 0 10.21 1.03 14.35 3.39.78.45 1.55.94 2.31 1.49.51.37 1 .75 1.48 1.16.05.05.87.7.92.75l-7.49 10.22c-.07-.06-.9-.72-.98-.78-5.91-4.56-10.89-3.98-10.89-3.98-4.32 0-6.25 2.3-6.25 4.58 0 2.56 3.01 3.48 7.69 4.59.43.1.88.2 1.34.31.61.15 1.25.3 1.92.45.57.13 1.15.27 1.74.42l.11.03c8.54 2.11 16.41 5.59 16.41 16.53z"/><g><path class="cls-1" d="M119.44 88.8l11.33 29.72h-7.89l-2.13-5.76h-10.79l-2.08 5.76h-7.7l11.33-29.72h7.94zm-7.12 17.57h6.1L115.37 98l-3.05 8.37zM135.94 88.8h11.23c9.34 0 15.01 5.81 15.01 14.86s-5.66 14.86-15.01 14.86h-11.23V88.8zm10.84 22.99c4.94 0 7.7-3.15 7.7-8.13s-2.76-8.18-7.7-8.18h-3.19v16.31h3.19zM177.23 118.52L166.14 88.8h8.33l6.73 19.22 6.73-19.22h7.99l-11.08 29.72h-7.6zM208.88 118.52h-7.79V88.8h7.79v29.72zM222.38 109.71c.63 2.03 2.37 3.05 4.79 3.05s4.02-1.02 4.02-2.86c0-1.4-.92-2.03-2.81-2.47l-5.71-1.21c-4.36-.97-7.65-3.24-7.65-8.28 0-5.81 4.84-9.63 11.42-9.63 7.26 0 11.38 3.97 12.2 9.1h-7.6c-.63-1.65-1.98-2.9-4.55-2.9-2.23 0-3.73.97-3.73 2.61 0 1.31.92 2.03 2.47 2.37l5.81 1.36c5.08 1.21 7.89 3.97 7.89 8.57 0 6.1-5.13 9.58-11.62 9.58-7.12 0-11.96-3.44-13.02-9.29h8.08zM258.2 119.01c-8.57 0-14.47-6.49-14.47-15.35s5.91-15.34 14.47-15.34 14.57 6.44 14.57 15.34-5.95 15.35-14.57 15.35zm0-23.86c-4.02 0-6.63 3.39-6.63 8.52s2.61 8.52 6.63 8.52 6.73-3.39 6.73-8.52-2.71-8.52-6.73-8.52zM286.32 108.7v9.83h-7.7V88.81h13.36c6.39 0 10.79 3.63 10.79 10.12 0 4.5-2.28 7.6-5.91 8.96l6.97 10.65h-8.62l-6.2-9.83h-2.71zm0-6.2h4.84c2.76 0 4.02-1.4 4.02-3.58s-1.26-3.58-4.02-3.58h-4.84v7.16zM315.46 109.71c.63 2.03 2.37 3.05 4.79 3.05s4.02-1.02 4.02-2.86c0-1.4-.92-2.03-2.81-2.47l-5.71-1.21c-4.36-.97-7.65-3.24-7.65-8.28 0-5.81 4.84-9.63 11.42-9.63 7.26 0 11.38 3.97 12.2 9.1h-7.6c-.63-1.65-1.98-2.9-4.55-2.9-2.23 0-3.73.97-3.73 2.61 0 1.31.92 2.03 2.47 2.37l5.81 1.36c5.08 1.21 7.89 3.97 7.89 8.57 0 6.1-5.13 9.58-11.62 9.58-7.12 0-11.96-3.44-13.02-9.29h8.08z"/></g><path class="cls-1" d="M757.12 62.42c0 2.49-1.95 4.44-4.49 4.44s-4.52-1.95-4.52-4.44 2-4.38 4.52-4.38 4.49 1.95 4.49 4.38zm-7.89 0c0 1.95 1.44 3.5 3.42 3.5s3.34-1.55 3.34-3.47-1.42-3.53-3.37-3.53-3.39 1.58-3.39 3.5zm2.7 2.3h-1.02v-4.38c.4-.08.96-.13 1.68-.13.83 0 1.2.13 1.52.32.24.19.43.53.43.96 0 .48-.37.86-.91 1.02v.05c.43.16.67.48.8 1.07.13.67.21.94.32 1.1h-1.1c-.13-.16-.21-.56-.35-1.07-.08-.48-.35-.7-.91-.7h-.48v1.76zm.03-2.49h.48c.56 0 1.02-.19 1.02-.64 0-.4-.29-.67-.94-.67-.27 0-.45.03-.56.05v1.26z"/></g></svg>